<?xml version="1.0" encoding="UTF-8"?>
<svg xmlns="http://www.w3.org/2000/svg" width="315" height="315" viewBox="0 0 315 315" fill="none">
  <rect width="315" height="315" fill="white"></rect>
  <path d="M37.9512 46H34.9023V28.9375H25.0312V46H21.9551V26.2715H37.9512V46ZM52.6484 44.2773C51.4089 45.6081 49.7546 46.2734 47.6855 46.2734C45.6165 46.2734 43.9622 45.6081 42.7227 44.2773C41.4831 42.9375 40.8633 41.1146 40.8633 38.8086C40.8633 36.5117 41.4831 34.6979 42.7227 33.3672C43.9622 32.0273 45.6165 31.3574 47.6855 31.3574C49.7546 31.3574 51.4089 32.0273 52.6484 33.3672C53.888 34.6979 54.5078 36.5117 54.5078 38.8086C54.5078 41.1146 53.888 42.9375 52.6484 44.2773ZM47.6855 43.8398C48.8613 43.8398 49.791 43.3978 50.4746 42.5137C51.1582 41.6296 51.5 40.3945 51.5 38.8086C51.5 37.2318 51.1536 36.0013 50.4609 35.1172C49.7773 34.2331 48.8522 33.791 47.6855 33.791C46.5189 33.791 45.5892 34.2331 44.8965 35.1172C44.2129 36.0013 43.8711 37.2318 43.8711 38.8086C43.8711 40.3945 44.2129 41.6296 44.8965 42.5137C45.5892 43.3978 46.5189 43.8398 47.6855 43.8398ZM60.8789 39.4512C60.8242 40.3079 60.7376 41.0645 60.6191 41.7207C60.5007 42.377 60.3275 42.9922 60.0996 43.5664C59.8717 44.1315 59.5938 44.6009 59.2656 44.9746C58.9375 45.3392 58.5273 45.6263 58.0352 45.8359C57.5521 46.0365 56.9915 46.1367 56.3535 46.1367C55.9525 46.1367 55.6198 46.0866 55.3555 45.9863V43.3887C55.6016 43.4616 55.8613 43.498 56.1348 43.498C56.791 43.498 57.2741 43.1426 57.584 42.4316C57.8939 41.7207 58.0944 40.6862 58.1855 39.3281L58.6777 31.6172H68.6445V46H65.7051V33.9551H61.2754L60.8789 39.4512ZM80.3477 34.7754C79.7005 34.0827 78.8665 33.7363 77.8457 33.7363C76.8249 33.7363 75.9772 34.0872 75.3027 34.7891C74.6283 35.4818 74.2546 36.3796 74.1816 37.4824H81.373C81.3366 36.3704 80.9948 35.4681 80.3477 34.7754ZM81.3594 41.7754H84.1621C83.9525 43.097 83.278 44.1771 82.1387 45.0156C80.9993 45.8542 79.6094 46.2734 77.9688 46.2734C75.8633 46.2734 74.2044 45.6126 72.9922 44.291C71.7891 42.9603 71.1875 41.1556 71.1875 38.877C71.1875 36.6165 71.7891 34.7982 72.9922 33.4219C74.2044 32.0456 75.8223 31.3574 77.8457 31.3574C79.8327 31.3574 81.4095 32.0091 82.5762 33.3125C83.7428 34.6068 84.3262 36.3477 84.3262 38.5352V39.5469H74.168V39.7246C74.168 40.9824 74.5189 41.9896 75.2207 42.7461C75.9225 43.5026 76.8613 43.8809 78.0371 43.8809C78.8665 43.8809 79.5775 43.6895 80.1699 43.3066C80.7624 42.9238 81.1589 42.4134 81.3594 41.7754ZM97.2734 31.6172V33.9551H92.7617V46H89.8223V33.9551H85.3105V31.6172H97.2734ZM114.568 46V39.7383H108.061V46H105.121V31.6172H108.061V37.4141H114.568V31.6172H117.508V46H114.568ZM125.752 43.9082C126.791 43.9082 127.661 43.5938 128.363 42.9648C129.074 42.3268 129.43 41.543 129.43 40.6133V39.4785L125.889 39.6973C125.005 39.7611 124.321 39.9798 123.838 40.3535C123.364 40.7181 123.127 41.2103 123.127 41.8301C123.127 42.459 123.364 42.9648 123.838 43.3477C124.321 43.7214 124.959 43.9082 125.752 43.9082ZM124.932 46.2461C123.519 46.2461 122.366 45.8451 121.473 45.043C120.589 44.2409 120.146 43.1973 120.146 41.9121C120.146 40.6543 120.611 39.6562 121.541 38.918C122.471 38.1706 123.788 37.7513 125.492 37.6602L129.43 37.4277V36.3203C129.43 35.5182 129.174 34.8939 128.664 34.4473C128.154 33.9915 127.447 33.7637 126.545 33.7637C125.706 33.7637 125.023 33.9505 124.494 34.3242C123.975 34.6979 123.646 35.2129 123.51 35.8691H120.721C120.803 34.5384 121.377 33.4538 122.443 32.6152C123.51 31.7767 124.913 31.3574 126.654 31.3574C128.395 31.3574 129.781 31.7858 130.811 32.6426C131.85 33.4993 132.369 34.6478 132.369 36.0879V46H129.539V43.6348H129.471C129.061 44.4277 128.436 45.0612 127.598 45.5352C126.768 46.0091 125.88 46.2461 124.932 46.2461ZM27.5195 66.7637H24.498V70.5371H27.2324C28.9004 70.5371 29.7344 69.8991 29.7344 68.623C29.7344 68.0306 29.543 67.5749 29.1602 67.2559C28.7773 66.9277 28.2305 66.7637 27.5195 66.7637ZM27.4238 72.6016H24.498V76.8535H27.752C28.5905 76.8535 29.2285 76.6758 29.666 76.3203C30.1035 75.9557 30.3223 75.4271 30.3223 74.7344C30.3223 73.3125 29.3561 72.6016 27.4238 72.6016ZM21.5859 79V64.6172H28.1211C29.5247 64.6172 30.623 64.9453 31.416 65.6016C32.2181 66.2487 32.6191 67.1419 32.6191 68.2812C32.6191 69.0286 32.3822 69.7031 31.9082 70.3047C31.4434 70.8971 30.8646 71.2572 30.1719 71.3848V71.4941C31.1016 71.6217 31.849 71.9909 32.4141 72.6016C32.9792 73.2031 33.2617 73.9551 33.2617 74.8574C33.2617 76.1243 32.806 77.1315 31.8945 77.8789C30.9922 78.6263 29.7617 79 28.2031 79H21.5859ZM38.7988 79H35.8867V64.6172H38.7988V74.6934H38.9082L45.5527 64.6172H48.4648V79H45.5527V68.8965H45.4434L38.7988 79ZM61.084 79V72.7383H54.5762V79H51.6367V64.6172H54.5762V70.4141H61.084V64.6172H64.0234V79H61.084ZM78.3789 77.2773C77.1393 78.6081 75.485 79.2734 73.416 79.2734C71.347 79.2734 69.6927 78.6081 68.4531 77.2773C67.2135 75.9375 66.5938 74.1146 66.5938 71.8086C66.5938 69.5117 67.2135 67.6979 68.4531 66.3672C69.6927 65.0273 71.347 64.3574 73.416 64.3574C75.485 64.3574 77.1393 65.0273 78.3789 66.3672C79.6185 67.6979 80.2383 69.5117 80.2383 71.8086C80.2383 74.1146 79.6185 75.9375 78.3789 77.2773ZM73.416 76.8398C74.5918 76.8398 75.5215 76.3978 76.2051 75.5137C76.8887 74.6296 77.2305 73.3945 77.2305 71.8086C77.2305 70.2318 76.8841 69.0013 76.1914 68.1172C75.5078 67.2331 74.5827 66.791 73.416 66.791C72.2493 66.791 71.3197 67.2331 70.627 68.1172C69.9434 69.0013 69.6016 70.2318 69.6016 71.8086C69.6016 73.3945 69.9434 74.6296 70.627 75.5137C71.3197 76.3978 72.2493 76.8398 73.416 76.8398ZM92.1055 76.6621V66.9551H87.1016L86.7051 72.4512C86.5866 74.2923 86.2129 75.6595 85.584 76.5527V76.6621H92.1055ZM83.9297 82.7734H81.209V76.6621H82.3711C83.319 76.0697 83.875 74.625 84.0391 72.3281L84.5586 64.6172H95.0449V76.6621H97.2734V82.7734H94.5391V79H83.9297V82.7734ZM107.801 67.7754C107.154 67.0827 106.32 66.7363 105.299 66.7363C104.278 66.7363 103.43 67.0872 102.756 67.7891C102.081 68.4818 101.708 69.3796 101.635 70.4824H108.826C108.79 69.3704 108.448 68.4681 107.801 67.7754ZM108.812 74.7754H111.615C111.406 76.097 110.731 77.1771 109.592 78.0156C108.452 78.8542 107.062 79.2734 105.422 79.2734C103.316 79.2734 101.658 78.6126 100.445 77.291C99.2422 75.9603 98.6406 74.1556 98.6406 71.877C98.6406 69.6165 99.2422 67.7982 100.445 66.4219C101.658 65.0456 103.275 64.3574 105.299 64.3574C107.286 64.3574 108.863 65.0091 110.029 66.3125C111.196 67.6068 111.779 69.3477 111.779 71.5352V72.5469H101.621V72.7246C101.621 73.9824 101.972 74.9896 102.674 75.7461C103.376 76.5026 104.314 76.8809 105.49 76.8809C106.32 76.8809 107.031 76.6895 107.623 76.3066C108.215 75.9238 108.612 75.4134 108.812 74.7754ZM118.137 72.4512C118.082 73.3079 117.995 74.0645 117.877 74.7207C117.758 75.377 117.585 75.9922 117.357 76.5664C117.13 77.1315 116.852 77.6009 116.523 77.9746C116.195 78.3392 115.785 78.6263 115.293 78.8359C114.81 79.0365 114.249 79.1367 113.611 79.1367C113.21 79.1367 112.878 79.0866 112.613 78.9863V76.3887C112.859 76.4616 113.119 76.498 113.393 76.498C114.049 76.498 114.532 76.1426 114.842 75.4316C115.152 74.7207 115.352 73.6862 115.443 72.3281L115.936 64.6172H125.902V79H122.963V66.9551H118.533L118.137 72.4512ZM134.502 71.3711H132.014V76.6758H134.502C135.35 76.6758 136.024 76.4342 136.525 75.9512C137.036 75.459 137.291 74.8164 137.291 74.0234C137.291 73.2214 137.036 72.5788 136.525 72.0957C136.015 71.6126 135.34 71.3711 134.502 71.3711ZM129.074 79V64.6172H132.014V69.0605H134.762C136.43 69.0605 137.756 69.5117 138.74 70.4141C139.734 71.3073 140.23 72.5104 140.23 74.0234C140.23 75.5456 139.734 76.7578 138.74 77.6602C137.756 78.5534 136.43 79 134.762 79H129.074ZM152.139 79V72.7383H145.631V79H142.691V64.6172H145.631V70.4141H152.139V64.6172H155.078V79H152.139ZM170.281 79.2734C168.349 79.2734 166.795 78.6992 165.619 77.5508C164.443 76.3932 163.773 74.7891 163.609 72.7383H161.217V79H158.277V64.6172H161.217V70.4141H163.664C163.901 68.5091 164.603 67.0234 165.77 65.957C166.936 64.8906 168.44 64.3574 170.281 64.3574C172.368 64.3574 174.009 65.0228 175.203 66.3535C176.406 67.6751 177.008 69.4935 177.008 71.8086C177.008 74.1328 176.406 75.9603 175.203 77.291C174.009 78.6126 172.368 79.2734 170.281 79.2734ZM167.547 75.5C168.194 76.3659 169.105 76.7988 170.281 76.7988C171.457 76.7988 172.368 76.3659 173.016 75.5C173.663 74.625 173.986 73.3945 173.986 71.8086C173.986 70.2227 173.663 68.9967 173.016 68.1309C172.368 67.265 171.457 66.832 170.281 66.832C169.105 66.832 168.194 67.265 167.547 68.1309C166.909 68.9967 166.59 70.2227 166.59 71.8086C166.59 73.3945 166.909 74.625 167.547 75.5Z" fill="#292323"></path>
  <rect y="237" width="315" height="78" fill="#395CB8"></rect>
  <path d="M29.6647 282H27.9225V272.25H22.2819V282H20.5241V270.727H29.6647V282ZM38.2231 281.016C37.5148 281.776 36.5695 282.156 35.3872 282.156C34.2049 282.156 33.2596 281.776 32.5513 281.016C31.8429 280.25 31.4888 279.208 31.4888 277.891C31.4888 276.578 31.8429 275.542 32.5513 274.781C33.2596 274.016 34.2049 273.633 35.3872 273.633C36.5695 273.633 37.5148 274.016 38.2231 274.781C38.9315 275.542 39.2856 276.578 39.2856 277.891C39.2856 279.208 38.9315 280.25 38.2231 281.016ZM35.3872 280.766C36.0591 280.766 36.5903 280.513 36.9809 280.008C37.3716 279.503 37.5669 278.797 37.5669 277.891C37.5669 276.99 37.369 276.286 36.9731 275.781C36.5825 275.276 36.0539 275.023 35.3872 275.023C34.7205 275.023 34.1893 275.276 33.7934 275.781C33.4028 276.286 33.2075 276.99 33.2075 277.891C33.2075 278.797 33.4028 279.503 33.7934 280.008C34.1893 280.513 34.7205 280.766 35.3872 280.766ZM46.2269 280.664V275.117H43.3675L43.1409 278.258C43.0732 279.31 42.8597 280.091 42.5003 280.602V280.664H46.2269ZM41.555 284.156H40.0003V280.664H40.6644C41.206 280.326 41.5238 279.5 41.6175 278.188L41.9144 273.781H47.9066V280.664H49.18V284.156H47.6175V282H41.555V284.156ZM54.7697 273.648C55.8166 273.648 56.6551 274.031 57.2853 274.797C57.9155 275.562 58.2306 276.594 58.2306 277.891C58.2306 279.188 57.9181 280.221 57.2931 280.992C56.6681 281.758 55.8374 282.141 54.8009 282.141C54.2176 282.141 53.6994 282.008 53.2463 281.742C52.7983 281.477 52.4546 281.112 52.215 280.648H52.1759V284.719H50.4884V273.781H52.1213V275.195H52.1525C52.3973 274.716 52.7489 274.339 53.2072 274.062C53.6655 273.786 54.1864 273.648 54.7697 273.648ZM54.3244 280.711C54.991 280.711 55.5197 280.458 55.9103 279.953C56.3009 279.443 56.4963 278.755 56.4963 277.891C56.4963 277.031 56.3009 276.346 55.9103 275.836C55.5197 275.326 54.991 275.07 54.3244 275.07C53.6785 275.07 53.1577 275.328 52.7619 275.844C52.366 276.359 52.1681 277.042 52.1681 277.891C52.1681 278.745 52.3634 279.43 52.7541 279.945C53.1499 280.456 53.6733 280.711 54.3244 280.711ZM66.2188 281.016C65.5104 281.776 64.5651 282.156 63.3828 282.156C62.2005 282.156 61.2552 281.776 60.5469 281.016C59.8385 280.25 59.4844 279.208 59.4844 277.891C59.4844 276.578 59.8385 275.542 60.5469 274.781C61.2552 274.016 62.2005 273.633 63.3828 273.633C64.5651 273.633 65.5104 274.016 66.2188 274.781C66.9271 275.542 67.2812 276.578 67.2812 277.891C67.2812 279.208 66.9271 280.25 66.2188 281.016ZM63.3828 280.766C64.0547 280.766 64.5859 280.513 64.9766 280.008C65.3672 279.503 65.5625 278.797 65.5625 277.891C65.5625 276.99 65.3646 276.286 64.9688 275.781C64.5781 275.276 64.0495 275.023 63.3828 275.023C62.7161 275.023 62.1849 275.276 61.7891 275.781C61.3984 276.286 61.2031 276.99 61.2031 277.891C61.2031 278.797 61.3984 279.503 61.7891 280.008C62.1849 280.513 62.7161 280.766 63.3828 280.766ZM72.5584 282.156C71.2668 282.156 70.2824 281.74 69.6053 280.906C68.9334 280.073 68.5975 278.846 68.5975 277.227C68.5975 275.701 68.7511 274.469 69.0584 273.531C69.3709 272.589 69.8501 271.891 70.4959 271.438C71.147 270.984 71.9985 270.74 73.0506 270.703L73.785 270.68C74.8006 270.633 75.5168 270.497 75.9334 270.273V271.672C75.8241 271.776 75.5767 271.87 75.1912 271.953C74.8058 272.036 74.3683 272.089 73.8787 272.109L73.16 272.133C72.6131 272.154 72.1522 272.232 71.7772 272.367C71.4074 272.497 71.1001 272.706 70.8553 272.992C70.6105 273.273 70.4204 273.615 70.285 274.016C70.1496 274.411 70.0428 274.911 69.9647 275.516H70.0272C70.2876 275.031 70.6574 274.661 71.1366 274.406C71.6209 274.146 72.186 274.016 72.8319 274.016C73.9412 274.016 74.8241 274.375 75.4803 275.094C76.1418 275.812 76.4725 276.776 76.4725 277.984C76.4725 279.276 76.1235 280.294 75.4256 281.039C74.7277 281.784 73.772 282.156 72.5584 282.156ZM72.5428 280.742C73.2407 280.742 73.7824 280.505 74.1678 280.031C74.5532 279.552 74.7459 278.878 74.7459 278.008C74.7459 277.18 74.5532 276.536 74.1678 276.078C73.7824 275.62 73.2407 275.391 72.5428 275.391C71.8397 275.391 71.2928 275.62 70.9022 276.078C70.5168 276.536 70.3241 277.18 70.3241 278.008C70.3241 278.883 70.5168 279.557 70.9022 280.031C71.2928 280.505 71.8397 280.742 72.5428 280.742ZM83.4841 282V278.422H79.7653V282H78.0856V273.781H79.7653V277.094H83.4841V273.781H85.1637V282H83.4841ZM92.0269 275.586C91.6571 275.19 91.1805 274.992 90.5972 274.992C90.0139 274.992 89.5295 275.193 89.1441 275.594C88.7586 275.99 88.5451 276.503 88.5034 277.133H92.6128C92.592 276.497 92.3967 275.982 92.0269 275.586ZM92.605 279.586H94.2066C94.0868 280.341 93.7014 280.958 93.0503 281.438C92.3993 281.917 91.605 282.156 90.6675 282.156C89.4644 282.156 88.5165 281.779 87.8238 281.023C87.1363 280.263 86.7925 279.232 86.7925 277.93C86.7925 276.638 87.1363 275.599 87.8238 274.812C88.5165 274.026 89.4409 273.633 90.5972 273.633C91.7326 273.633 92.6336 274.005 93.3003 274.75C93.967 275.49 94.3003 276.484 94.3003 277.734V278.312H88.4956V278.414C88.4956 279.133 88.6961 279.708 89.0972 280.141C89.4982 280.573 90.0347 280.789 90.7066 280.789C91.1805 280.789 91.5868 280.68 91.9253 280.461C92.2639 280.242 92.4904 279.951 92.605 279.586ZM100.781 275.586C100.411 275.19 99.9343 274.992 99.3509 274.992C98.7676 274.992 98.2832 275.193 97.8978 275.594C97.5124 275.99 97.2989 276.503 97.2572 277.133H101.367C101.346 276.497 101.15 275.982 100.781 275.586ZM101.359 279.586H102.96C102.841 280.341 102.455 280.958 101.804 281.438C101.153 281.917 100.359 282.156 99.4212 282.156C98.2181 282.156 97.2702 281.779 96.5775 281.023C95.89 280.263 95.5462 279.232 95.5462 277.93C95.5462 276.638 95.89 275.599 96.5775 274.812C97.2702 274.026 98.1947 273.633 99.3509 273.633C100.486 273.633 101.387 274.005 102.054 274.75C102.721 275.49 103.054 276.484 103.054 277.734V278.312H97.2494V278.414C97.2494 279.133 97.4499 279.708 97.8509 280.141C98.252 280.573 98.7884 280.789 99.4603 280.789C99.9343 280.789 100.341 280.68 100.679 280.461C101.018 280.242 101.244 279.951 101.359 279.586Z" fill="white"></path>
  <path d="M259.502 189.312H253.111V170.526C264.055 167.983 271.96 157.736 270.906 145.846L268.368 117.322C268.256 116.001 267.154 115 265.86 115H230.147C228.849 115 227.75 116.001 227.63 117.322L225.095 145.846C224.037 157.738 231.944 167.98 242.89 170.542V189.312H236.497C232.962 189.312 230.106 192.176 230.106 195.719C230.106 196.419 230.685 197 231.384 197H264.609C265.308 197 265.887 196.419 265.887 195.719C265.892 192.179 263.032 189.312 259.502 189.312ZM234.858 122.688H261.151L262.282 135.5H233.718L234.858 122.688Z" fill="#CE3558"></path>
</svg>
