<?xml version="1.0" encoding="UTF-8"?>
<svg xmlns="http://www.w3.org/2000/svg" width="315" height="315" viewBox="0 0 315 315" fill="none">
  <rect width="315" height="315" fill="white"></rect>
  <path d="M37.9512 46H34.9023V28.9375H25.0312V46H21.9551V26.2715H37.9512V46ZM48.998 31.3848C50.8301 31.3848 52.2975 32.0547 53.4004 33.3945C54.5033 34.7344 55.0547 36.5391 55.0547 38.8086C55.0547 41.0781 54.5078 42.8874 53.4141 44.2363C52.3203 45.5762 50.8665 46.2461 49.0527 46.2461C48.0319 46.2461 47.125 46.0137 46.332 45.5488C45.5482 45.084 44.9466 44.446 44.5273 43.6348H44.459V50.7578H41.5059V31.6172H44.3633V34.0918H44.418C44.8464 33.2533 45.4616 32.5924 46.2637 32.1094C47.0658 31.6263 47.9772 31.3848 48.998 31.3848ZM48.2188 43.7441C49.3854 43.7441 50.3105 43.3021 50.9941 42.418C51.6777 41.5247 52.0195 40.3216 52.0195 38.8086C52.0195 37.3047 51.6777 36.1061 50.9941 35.2129C50.3105 34.3197 49.3854 33.873 48.2188 33.873C47.0885 33.873 46.1771 34.3242 45.4844 35.2266C44.7917 36.1289 44.4453 37.3229 44.4453 38.8086C44.4453 40.3034 44.7871 41.502 45.4707 42.4043C46.1634 43.2975 47.0794 43.7441 48.2188 43.7441ZM66.1289 34.7754C65.4818 34.0827 64.6478 33.7363 63.627 33.7363C62.6061 33.7363 61.7585 34.0872 61.084 34.7891C60.4095 35.4818 60.0358 36.3796 59.9629 37.4824H67.1543C67.1178 36.3704 66.776 35.4681 66.1289 34.7754ZM67.1406 41.7754H69.9434C69.7337 43.097 69.0592 44.1771 67.9199 45.0156C66.7806 45.8542 65.3906 46.2734 63.75 46.2734C61.6445 46.2734 59.9857 45.6126 58.7734 44.291C57.5703 42.9603 56.9688 41.1556 56.9688 38.877C56.9688 36.6165 57.5703 34.7982 58.7734 33.4219C59.9857 32.0456 61.6035 31.3574 63.627 31.3574C65.6139 31.3574 67.1908 32.0091 68.3574 33.3125C69.5241 34.6068 70.1074 36.3477 70.1074 38.5352V39.5469H59.9492V39.7246C59.9492 40.9824 60.3001 41.9896 61.002 42.7461C61.7038 43.5026 62.6426 43.8809 63.8184 43.8809C64.6478 43.8809 65.3587 43.6895 65.9512 43.3066C66.5436 42.9238 66.9401 42.4134 67.1406 41.7754ZM81.9609 43.6621V33.9551H76.957L76.5605 39.4512C76.4421 41.2923 76.0684 42.6595 75.4395 43.5527V43.6621H81.9609ZM73.7852 49.7734H71.0645V43.6621H72.2266C73.1745 43.0697 73.7305 41.625 73.8945 39.3281L74.4141 31.6172H84.9004V43.6621H87.1289V49.7734H84.3945V46H73.7852V49.7734ZM93.5273 39.4512C93.4727 40.3079 93.3861 41.0645 93.2676 41.7207C93.1491 42.377 92.9759 42.9922 92.748 43.5664C92.5202 44.1315 92.2422 44.6009 91.9141 44.9746C91.5859 45.3392 91.1758 45.6263 90.6836 45.8359C90.2005 46.0365 89.64 46.1367 89.002 46.1367C88.6009 46.1367 88.2682 46.0866 88.0039 45.9863V43.3887C88.25 43.4616 88.5098 43.498 88.7832 43.498C89.4395 43.498 89.9225 43.1426 90.2324 42.4316C90.5423 41.7207 90.7428 40.6862 90.834 39.3281L91.3262 31.6172H101.293V46H98.3535V33.9551H93.9238L93.5273 39.4512ZM115.621 44.2773C114.382 45.6081 112.727 46.2734 110.658 46.2734C108.589 46.2734 106.935 45.6081 105.695 44.2773C104.456 42.9375 103.836 41.1146 103.836 38.8086C103.836 36.5117 104.456 34.6979 105.695 33.3672C106.935 32.0273 108.589 31.3574 110.658 31.3574C112.727 31.3574 114.382 32.0273 115.621 33.3672C116.861 34.6979 117.48 36.5117 117.48 38.8086C117.48 41.1146 116.861 42.9375 115.621 44.2773ZM110.658 43.8398C111.834 43.8398 112.764 43.3978 113.447 42.5137C114.131 41.6296 114.473 40.3945 114.473 38.8086C114.473 37.2318 114.126 36.0013 113.434 35.1172C112.75 34.2331 111.825 33.791 110.658 33.791C109.492 33.791 108.562 34.2331 107.869 35.1172C107.186 36.0013 106.844 37.2318 106.844 38.8086C106.844 40.3945 107.186 41.6296 107.869 42.5137C108.562 43.3978 109.492 43.8398 110.658 43.8398ZM132.848 38.3711L138.986 46H135.322L130.031 39.3691H129.922V46H127.01V39.3691H126.914L121.623 46H118.014L124.111 38.4258L118.178 31.6172H121.691L126.914 37.7695H127.01V31.6172H129.922V37.7695H130.031L135.254 31.6172H138.74L132.848 38.3711ZM148.898 34.7754C148.251 34.0827 147.417 33.7363 146.396 33.7363C145.376 33.7363 144.528 34.0872 143.854 34.7891C143.179 35.4818 142.805 36.3796 142.732 37.4824H149.924C149.887 36.3704 149.546 35.4681 148.898 34.7754ZM149.91 41.7754H152.713C152.503 43.097 151.829 44.1771 150.689 45.0156C149.55 45.8542 148.16 46.2734 146.52 46.2734C144.414 46.2734 142.755 45.6126 141.543 44.291C140.34 42.9603 139.738 41.1556 139.738 38.877C139.738 36.6165 140.34 34.7982 141.543 33.4219C142.755 32.0456 144.373 31.3574 146.396 31.3574C148.383 31.3574 149.96 32.0091 151.127 33.3125C152.294 34.6068 152.877 36.3477 152.877 38.5352V39.5469H142.719V39.7246C142.719 40.9824 143.07 41.9896 143.771 42.7461C144.473 43.5026 145.412 43.8809 146.588 43.8809C147.417 43.8809 148.128 43.6895 148.721 43.3066C149.313 42.9238 149.71 42.4134 149.91 41.7754ZM164.854 46V39.7383H158.346V46H155.406V31.6172H158.346V37.4141H164.854V31.6172H167.793V46H164.854ZM173.904 46H170.992V31.6172H173.904V41.6934H174.014L180.658 31.6172H183.57V46H180.658V35.8965H180.549L173.904 46ZM195.273 34.7754C194.626 34.0827 193.792 33.7363 192.771 33.7363C191.751 33.7363 190.903 34.0872 190.229 34.7891C189.554 35.4818 189.18 36.3796 189.107 37.4824H196.299C196.262 36.3704 195.921 35.4681 195.273 34.7754ZM196.285 41.7754H199.088C198.878 43.097 198.204 44.1771 197.064 45.0156C195.925 45.8542 194.535 46.2734 192.895 46.2734C190.789 46.2734 189.13 45.6126 187.918 44.291C186.715 42.9603 186.113 41.1556 186.113 38.877C186.113 36.6165 186.715 34.7982 187.918 33.4219C189.13 32.0456 190.748 31.3574 192.771 31.3574C194.758 31.3574 196.335 32.0091 197.502 33.3125C198.669 34.6068 199.252 36.3477 199.252 38.5352V39.5469H189.094V39.7246C189.094 40.9824 189.445 41.9896 190.146 42.7461C190.848 43.5026 191.787 43.8809 192.963 43.8809C193.792 43.8809 194.503 43.6895 195.096 43.3066C195.688 42.9238 196.085 42.4134 196.285 41.7754ZM214.975 31.3848C216.807 31.3848 218.274 32.0547 219.377 33.3945C220.48 34.7344 221.031 36.5391 221.031 38.8086C221.031 41.0781 220.484 42.8874 219.391 44.2363C218.297 45.5762 216.843 46.2461 215.029 46.2461C214.008 46.2461 213.102 46.0137 212.309 45.5488C211.525 45.084 210.923 44.446 210.504 43.6348H210.436V50.7578H207.482V31.6172H210.34V34.0918H210.395C210.823 33.2533 211.438 32.5924 212.24 32.1094C213.042 31.6263 213.954 31.3848 214.975 31.3848ZM214.195 43.7441C215.362 43.7441 216.287 43.3021 216.971 42.418C217.654 41.5247 217.996 40.3216 217.996 38.8086C217.996 37.3047 217.654 36.1061 216.971 35.2129C216.287 34.3197 215.362 33.873 214.195 33.873C213.065 33.873 212.154 34.3242 211.461 35.2266C210.768 36.1289 210.422 37.3229 210.422 38.8086C210.422 40.3034 210.764 41.502 211.447 42.4043C212.14 43.2975 213.056 43.7441 214.195 43.7441ZM224.627 51.3594C224.071 51.3594 223.67 51.3366 223.424 51.291V48.8984C223.57 48.9349 223.889 48.9531 224.381 48.9531C225.074 48.9531 225.616 48.7936 226.008 48.4746C226.4 48.1647 226.71 47.6406 226.938 46.9023C226.938 46.8932 226.983 46.7428 227.074 46.4512L227.197 46.0137L222.002 31.6172H225.201L228.852 43.3203H228.893L232.543 31.6172H235.66L230.26 46.752C229.649 48.4928 228.934 49.696 228.113 50.3613C227.293 51.0267 226.131 51.3594 224.627 51.3594ZM243.467 38.3711L250.084 46H246.379L240.678 39.3691H240.568V46H237.629V31.6172H240.568V37.7695H240.678L246.311 31.6172H249.838L243.467 38.3711ZM254.842 46H251.93V31.6172H254.842V41.6934H254.951L261.596 31.6172H264.508V46H261.596V35.8965H261.486L254.842 46ZM24.498 79H21.5859V64.6172H24.498V74.6934H24.6074L31.252 64.6172H34.1641V79H31.252V68.8965H31.1426L24.498 79ZM55.3008 69.2246H52.457C52.2565 68.5137 51.8737 67.9349 51.3086 67.4883C50.7435 67.0417 50.0234 66.8184 49.1484 66.8184C48.0091 66.8184 47.0931 67.2741 46.4004 68.1855C45.7168 69.0879 45.375 70.2956 45.375 71.8086C45.375 73.3581 45.7168 74.5794 46.4004 75.4727C47.0931 76.3568 48.0182 76.7988 49.1758 76.7988C50.0417 76.7988 50.7572 76.5938 51.3223 76.1836C51.8874 75.7643 52.2747 75.1764 52.4844 74.4199H55.3281C55.1185 75.8783 54.4531 77.054 53.332 77.9473C52.2201 78.8314 50.8255 79.2734 49.1484 79.2734C47.0794 79.2734 45.4342 78.6035 44.2129 77.2637C42.9915 75.9238 42.3809 74.1055 42.3809 71.8086C42.3809 69.5482 42.9915 67.7435 44.2129 66.3945C45.4434 65.0365 47.0794 64.3574 49.1211 64.3574C50.8255 64.3574 52.2246 64.8223 53.3184 65.752C54.4212 66.6725 55.082 67.8301 55.3008 69.2246ZM66.2383 67.7754C65.5911 67.0827 64.7572 66.7363 63.7363 66.7363C62.7155 66.7363 61.8678 67.0872 61.1934 67.7891C60.5189 68.4818 60.1452 69.3796 60.0723 70.4824H67.2637C67.2272 69.3704 66.8854 68.4681 66.2383 67.7754ZM67.25 74.7754H70.0527C69.8431 76.097 69.1686 77.1771 68.0293 78.0156C66.89 78.8542 65.5 79.2734 63.8594 79.2734C61.7539 79.2734 60.0951 78.6126 58.8828 77.291C57.6797 75.9603 57.0781 74.1556 57.0781 71.877C57.0781 69.6165 57.6797 67.7982 58.8828 66.4219C60.0951 65.0456 61.7129 64.3574 63.7363 64.3574C65.7233 64.3574 67.3001 65.0091 68.4668 66.3125C69.6335 67.6068 70.2168 69.3477 70.2168 71.5352V72.5469H60.0586V72.7246C60.0586 73.9824 60.4095 74.9896 61.1113 75.7461C61.8132 76.5026 62.752 76.8809 63.9277 76.8809C64.7572 76.8809 65.4681 76.6895 66.0605 76.3066C66.653 75.9238 67.0495 75.4134 67.25 74.7754ZM80.252 64.3848C82.084 64.3848 83.5514 65.0547 84.6543 66.3945C85.7572 67.7344 86.3086 69.5391 86.3086 71.8086C86.3086 74.0781 85.7617 75.8874 84.668 77.2363C83.5742 78.5762 82.1204 79.2461 80.3066 79.2461C79.2858 79.2461 78.3789 79.0137 77.5859 78.5488C76.8021 78.084 76.2005 77.446 75.7812 76.6348H75.7129V83.7578H72.7598V64.6172H75.6172V67.0918H75.6719C76.1003 66.2533 76.7155 65.5924 77.5176 65.1094C78.3197 64.6263 79.2311 64.3848 80.252 64.3848ZM79.4727 76.7441C80.6393 76.7441 81.5645 76.3021 82.248 75.418C82.9316 74.5247 83.2734 73.3216 83.2734 71.8086C83.2734 70.3047 82.9316 69.1061 82.248 68.2129C81.5645 67.3197 80.6393 66.873 79.4727 66.873C78.3424 66.873 77.431 67.3242 76.7383 68.2266C76.0456 69.1289 75.6992 70.3229 75.6992 71.8086C75.6992 73.3034 76.041 74.502 76.7246 75.4043C77.4173 76.2975 78.3333 76.7441 79.4727 76.7441ZM98.1758 76.6621V66.9551H93.1719L92.7754 72.4512C92.6569 74.2923 92.2832 75.6595 91.6543 76.5527V76.6621H98.1758ZM90 82.7734H87.2793V76.6621H88.4414C89.3893 76.0697 89.9453 74.625 90.1094 72.3281L90.6289 64.6172H101.115V76.6621H103.344V82.7734H100.609V79H90V82.7734ZM119.736 82.7734H117.016V79H105.34V64.6172H108.279V76.6621H114.555V64.6172H117.494V76.6621H119.736V82.7734ZM126.791 76.9082C127.83 76.9082 128.701 76.5938 129.402 75.9648C130.113 75.3268 130.469 74.543 130.469 73.6133V72.4785L126.928 72.6973C126.044 72.7611 125.36 72.9798 124.877 73.3535C124.403 73.7181 124.166 74.2103 124.166 74.8301C124.166 75.459 124.403 75.9648 124.877 76.3477C125.36 76.7214 125.998 76.9082 126.791 76.9082ZM125.971 79.2461C124.558 79.2461 123.405 78.8451 122.512 78.043C121.628 77.2409 121.186 76.1973 121.186 74.9121C121.186 73.6543 121.65 72.6562 122.58 71.918C123.51 71.1706 124.827 70.7513 126.531 70.6602L130.469 70.4277V69.3203C130.469 68.5182 130.214 67.8939 129.703 67.4473C129.193 66.9915 128.486 66.7637 127.584 66.7637C126.745 66.7637 126.062 66.9505 125.533 67.3242C125.014 67.6979 124.686 68.2129 124.549 68.8691H121.76C121.842 67.5384 122.416 66.4538 123.482 65.6152C124.549 64.7767 125.952 64.3574 127.693 64.3574C129.434 64.3574 130.82 64.7858 131.85 65.6426C132.889 66.4993 133.408 67.6478 133.408 69.0879V79H130.578V76.6348H130.51C130.1 77.4277 129.475 78.0612 128.637 78.5352C127.807 79.0091 126.919 79.2461 125.971 79.2461ZM137.387 59.2715H140.436L140.217 72.4648H137.605L137.387 59.2715ZM138.904 79.2051C138.403 79.2051 137.979 79.0365 137.633 78.6992C137.286 78.362 137.113 77.9427 137.113 77.4414C137.113 76.9401 137.286 76.5208 137.633 76.1836C137.979 75.8464 138.403 75.6777 138.904 75.6777C139.415 75.6777 139.843 75.8464 140.189 76.1836C140.536 76.5208 140.709 76.9401 140.709 77.4414C140.709 77.9427 140.536 78.362 140.189 78.6992C139.843 79.0365 139.415 79.2051 138.904 79.2051Z" fill="#292323"></path>
  <rect y="237" width="315" height="78" fill="#395CB8"></rect>
  <path d="M29.6647 282H27.9225V272.25H22.2819V282H20.5241V270.727H29.6647V282ZM38.2231 281.016C37.5148 281.776 36.5695 282.156 35.3872 282.156C34.2049 282.156 33.2596 281.776 32.5513 281.016C31.8429 280.25 31.4888 279.208 31.4888 277.891C31.4888 276.578 31.8429 275.542 32.5513 274.781C33.2596 274.016 34.2049 273.633 35.3872 273.633C36.5695 273.633 37.5148 274.016 38.2231 274.781C38.9315 275.542 39.2856 276.578 39.2856 277.891C39.2856 279.208 38.9315 280.25 38.2231 281.016ZM35.3872 280.766C36.0591 280.766 36.5903 280.513 36.9809 280.008C37.3716 279.503 37.5669 278.797 37.5669 277.891C37.5669 276.99 37.369 276.286 36.9731 275.781C36.5825 275.276 36.0539 275.023 35.3872 275.023C34.7205 275.023 34.1893 275.276 33.7934 275.781C33.4028 276.286 33.2075 276.99 33.2075 277.891C33.2075 278.797 33.4028 279.503 33.7934 280.008C34.1893 280.513 34.7205 280.766 35.3872 280.766ZM46.2269 280.664V275.117H43.3675L43.1409 278.258C43.0732 279.31 42.8597 280.091 42.5003 280.602V280.664H46.2269ZM41.555 284.156H40.0003V280.664H40.6644C41.206 280.326 41.5238 279.5 41.6175 278.188L41.9144 273.781H47.9066V280.664H49.18V284.156H47.6175V282H41.555V284.156ZM54.7697 273.648C55.8166 273.648 56.6551 274.031 57.2853 274.797C57.9155 275.562 58.2306 276.594 58.2306 277.891C58.2306 279.188 57.9181 280.221 57.2931 280.992C56.6681 281.758 55.8374 282.141 54.8009 282.141C54.2176 282.141 53.6994 282.008 53.2463 281.742C52.7983 281.477 52.4546 281.112 52.215 280.648H52.1759V284.719H50.4884V273.781H52.1213V275.195H52.1525C52.3973 274.716 52.7489 274.339 53.2072 274.062C53.6655 273.786 54.1864 273.648 54.7697 273.648ZM54.3244 280.711C54.991 280.711 55.5197 280.458 55.9103 279.953C56.3009 279.443 56.4963 278.755 56.4963 277.891C56.4963 277.031 56.3009 276.346 55.9103 275.836C55.5197 275.326 54.991 275.07 54.3244 275.07C53.6785 275.07 53.1577 275.328 52.7619 275.844C52.366 276.359 52.1681 277.042 52.1681 277.891C52.1681 278.745 52.3634 279.43 52.7541 279.945C53.1499 280.456 53.6733 280.711 54.3244 280.711ZM66.2188 281.016C65.5104 281.776 64.5651 282.156 63.3828 282.156C62.2005 282.156 61.2552 281.776 60.5469 281.016C59.8385 280.25 59.4844 279.208 59.4844 277.891C59.4844 276.578 59.8385 275.542 60.5469 274.781C61.2552 274.016 62.2005 273.633 63.3828 273.633C64.5651 273.633 65.5104 274.016 66.2188 274.781C66.9271 275.542 67.2812 276.578 67.2812 277.891C67.2812 279.208 66.9271 280.25 66.2188 281.016ZM63.3828 280.766C64.0547 280.766 64.5859 280.513 64.9766 280.008C65.3672 279.503 65.5625 278.797 65.5625 277.891C65.5625 276.99 65.3646 276.286 64.9688 275.781C64.5781 275.276 64.0495 275.023 63.3828 275.023C62.7161 275.023 62.1849 275.276 61.7891 275.781C61.3984 276.286 61.2031 276.99 61.2031 277.891C61.2031 278.797 61.3984 279.503 61.7891 280.008C62.1849 280.513 62.7161 280.766 63.3828 280.766ZM72.5584 282.156C71.2668 282.156 70.2824 281.74 69.6053 280.906C68.9334 280.073 68.5975 278.846 68.5975 277.227C68.5975 275.701 68.7511 274.469 69.0584 273.531C69.3709 272.589 69.8501 271.891 70.4959 271.438C71.147 270.984 71.9985 270.74 73.0506 270.703L73.785 270.68C74.8006 270.633 75.5168 270.497 75.9334 270.273V271.672C75.8241 271.776 75.5767 271.87 75.1912 271.953C74.8058 272.036 74.3683 272.089 73.8787 272.109L73.16 272.133C72.6131 272.154 72.1522 272.232 71.7772 272.367C71.4074 272.497 71.1001 272.706 70.8553 272.992C70.6105 273.273 70.4204 273.615 70.285 274.016C70.1496 274.411 70.0428 274.911 69.9647 275.516H70.0272C70.2876 275.031 70.6574 274.661 71.1366 274.406C71.6209 274.146 72.186 274.016 72.8319 274.016C73.9412 274.016 74.8241 274.375 75.4803 275.094C76.1418 275.812 76.4725 276.776 76.4725 277.984C76.4725 279.276 76.1235 280.294 75.4256 281.039C74.7277 281.784 73.772 282.156 72.5584 282.156ZM72.5428 280.742C73.2407 280.742 73.7824 280.505 74.1678 280.031C74.5532 279.552 74.7459 278.878 74.7459 278.008C74.7459 277.18 74.5532 276.536 74.1678 276.078C73.7824 275.62 73.2407 275.391 72.5428 275.391C71.8397 275.391 71.2928 275.62 70.9022 276.078C70.5168 276.536 70.3241 277.18 70.3241 278.008C70.3241 278.883 70.5168 279.557 70.9022 280.031C71.2928 280.505 71.8397 280.742 72.5428 280.742ZM83.4841 282V278.422H79.7653V282H78.0856V273.781H79.7653V277.094H83.4841V273.781H85.1637V282H83.4841ZM92.0269 275.586C91.6571 275.19 91.1805 274.992 90.5972 274.992C90.0139 274.992 89.5295 275.193 89.1441 275.594C88.7586 275.99 88.5451 276.503 88.5034 277.133H92.6128C92.592 276.497 92.3967 275.982 92.0269 275.586ZM92.605 279.586H94.2066C94.0868 280.341 93.7014 280.958 93.0503 281.438C92.3993 281.917 91.605 282.156 90.6675 282.156C89.4644 282.156 88.5165 281.779 87.8238 281.023C87.1363 280.263 86.7925 279.232 86.7925 277.93C86.7925 276.638 87.1363 275.599 87.8238 274.812C88.5165 274.026 89.4409 273.633 90.5972 273.633C91.7326 273.633 92.6336 274.005 93.3003 274.75C93.967 275.49 94.3003 276.484 94.3003 277.734V278.312H88.4956V278.414C88.4956 279.133 88.6961 279.708 89.0972 280.141C89.4982 280.573 90.0347 280.789 90.7066 280.789C91.1805 280.789 91.5868 280.68 91.9253 280.461C92.2639 280.242 92.4904 279.951 92.605 279.586ZM100.781 275.586C100.411 275.19 99.9343 274.992 99.3509 274.992C98.7676 274.992 98.2832 275.193 97.8978 275.594C97.5124 275.99 97.2989 276.503 97.2572 277.133H101.367C101.346 276.497 101.15 275.982 100.781 275.586ZM101.359 279.586H102.96C102.841 280.341 102.455 280.958 101.804 281.438C101.153 281.917 100.359 282.156 99.4212 282.156C98.2181 282.156 97.2702 281.779 96.5775 281.023C95.89 280.263 95.5462 279.232 95.5462 277.93C95.5462 276.638 95.89 275.599 96.5775 274.812C97.2702 274.026 98.1947 273.633 99.3509 273.633C100.486 273.633 101.387 274.005 102.054 274.75C102.721 275.49 103.054 276.484 103.054 277.734V278.312H97.2494V278.414C97.2494 279.133 97.4499 279.708 97.8509 280.141C98.252 280.573 98.7884 280.789 99.4603 280.789C99.9343 280.789 100.341 280.68 100.679 280.461C101.018 280.242 101.244 279.951 101.359 279.586Z" fill="white"></path>
  <mask id="mask0_3_40" style="mask-type:alpha" maskUnits="userSpaceOnUse" x="196" y="118" width="67" height="87">
    <path d="M229.437 200.25C245.488 200.25 258.5 187.238 258.5 171.187C258.5 155.137 245.488 142.125 229.437 142.125C213.387 142.125 200.375 155.137 200.375 171.187C200.375 187.238 213.387 200.25 229.437 200.25Z" stroke="white" stroke-width="8.33333" stroke-linecap="round" stroke-linejoin="round"></path>
    <path d="M215.875 130.5L221.687 122.75H237.292L243 130.5L229.437 142.125L215.875 130.5Z" fill="white" stroke="white" stroke-width="8.33333" stroke-linecap="round" stroke-linejoin="round"></path>
  </mask>
  <g mask="url(#mask0_3_40)">
    <path d="M181 115H274V208H181V115Z" fill="#CF3558"></path>
  </g>
</svg>
