<?xml version="1.0" encoding="UTF-8"?>
<svg xmlns="http://www.w3.org/2000/svg" width="315" height="315" viewBox="0 0 315 315" fill="none">
  <rect width="315" height="315" fill="white"></rect>
  <path d="M37.9512 46H34.9023V28.9375H25.0312V46H21.9551V26.2715H37.9512V46ZM52.6484 44.2773C51.4089 45.6081 49.7546 46.2734 47.6855 46.2734C45.6165 46.2734 43.9622 45.6081 42.7227 44.2773C41.4831 42.9375 40.8633 41.1146 40.8633 38.8086C40.8633 36.5117 41.4831 34.6979 42.7227 33.3672C43.9622 32.0273 45.6165 31.3574 47.6855 31.3574C49.7546 31.3574 51.4089 32.0273 52.6484 33.3672C53.888 34.6979 54.5078 36.5117 54.5078 38.8086C54.5078 41.1146 53.888 42.9375 52.6484 44.2773ZM47.6855 43.8398C48.8613 43.8398 49.791 43.3978 50.4746 42.5137C51.1582 41.6296 51.5 40.3945 51.5 38.8086C51.5 37.2318 51.1536 36.0013 50.4609 35.1172C49.7773 34.2331 48.8522 33.791 47.6855 33.791C46.5189 33.791 45.5892 34.2331 44.8965 35.1172C44.2129 36.0013 43.8711 37.2318 43.8711 38.8086C43.8711 40.3945 44.2129 41.6296 44.8965 42.5137C45.5892 43.3978 46.5189 43.8398 47.6855 43.8398ZM60.8789 39.4512C60.8242 40.3079 60.7376 41.0645 60.6191 41.7207C60.5007 42.377 60.3275 42.9922 60.0996 43.5664C59.8717 44.1315 59.5938 44.6009 59.2656 44.9746C58.9375 45.3392 58.5273 45.6263 58.0352 45.8359C57.5521 46.0365 56.9915 46.1367 56.3535 46.1367C55.9525 46.1367 55.6198 46.0866 55.3555 45.9863V43.3887C55.6016 43.4616 55.8613 43.498 56.1348 43.498C56.791 43.498 57.2741 43.1426 57.584 42.4316C57.8939 41.7207 58.0944 40.6862 58.1855 39.3281L58.6777 31.6172H68.6445V46H65.7051V33.9551H61.2754L60.8789 39.4512ZM80.3477 34.7754C79.7005 34.0827 78.8665 33.7363 77.8457 33.7363C76.8249 33.7363 75.9772 34.0872 75.3027 34.7891C74.6283 35.4818 74.2546 36.3796 74.1816 37.4824H81.373C81.3366 36.3704 80.9948 35.4681 80.3477 34.7754ZM81.3594 41.7754H84.1621C83.9525 43.097 83.278 44.1771 82.1387 45.0156C80.9993 45.8542 79.6094 46.2734 77.9688 46.2734C75.8633 46.2734 74.2044 45.6126 72.9922 44.291C71.7891 42.9603 71.1875 41.1556 71.1875 38.877C71.1875 36.6165 71.7891 34.7982 72.9922 33.4219C74.2044 32.0456 75.8223 31.3574 77.8457 31.3574C79.8327 31.3574 81.4095 32.0091 82.5762 33.3125C83.7428 34.6068 84.3262 36.3477 84.3262 38.5352V39.5469H74.168V39.7246C74.168 40.9824 74.5189 41.9896 75.2207 42.7461C75.9225 43.5026 76.8613 43.8809 78.0371 43.8809C78.8665 43.8809 79.5775 43.6895 80.1699 43.3066C80.7624 42.9238 81.1589 42.4134 81.3594 41.7754ZM97.2734 31.6172V33.9551H92.7617V46H89.8223V33.9551H85.3105V31.6172H97.2734ZM114.568 46V39.7383H108.061V46H105.121V31.6172H108.061V37.4141H114.568V31.6172H117.508V46H114.568ZM125.752 43.9082C126.791 43.9082 127.661 43.5938 128.363 42.9648C129.074 42.3268 129.43 41.543 129.43 40.6133V39.4785L125.889 39.6973C125.005 39.7611 124.321 39.9798 123.838 40.3535C123.364 40.7181 123.127 41.2103 123.127 41.8301C123.127 42.459 123.364 42.9648 123.838 43.3477C124.321 43.7214 124.959 43.9082 125.752 43.9082ZM124.932 46.2461C123.519 46.2461 122.366 45.8451 121.473 45.043C120.589 44.2409 120.146 43.1973 120.146 41.9121C120.146 40.6543 120.611 39.6562 121.541 38.918C122.471 38.1706 123.788 37.7513 125.492 37.6602L129.43 37.4277V36.3203C129.43 35.5182 129.174 34.8939 128.664 34.4473C128.154 33.9915 127.447 33.7637 126.545 33.7637C125.706 33.7637 125.023 33.9505 124.494 34.3242C123.975 34.6979 123.646 35.2129 123.51 35.8691H120.721C120.803 34.5384 121.377 33.4538 122.443 32.6152C123.51 31.7767 124.913 31.3574 126.654 31.3574C128.395 31.3574 129.781 31.7858 130.811 32.6426C131.85 33.4993 132.369 34.6478 132.369 36.0879V46H129.539V43.6348H129.471C129.061 44.4277 128.436 45.0612 127.598 45.5352C126.768 46.0091 125.88 46.2461 124.932 46.2461ZM153.438 36.2246H150.594C150.393 35.5137 150.01 34.9349 149.445 34.4883C148.88 34.0417 148.16 33.8184 147.285 33.8184C146.146 33.8184 145.23 34.2741 144.537 35.1855C143.854 36.0879 143.512 37.2956 143.512 38.8086C143.512 40.3581 143.854 41.5794 144.537 42.4727C145.23 43.3568 146.155 43.7988 147.312 43.7988C148.178 43.7988 148.894 43.5938 149.459 43.1836C150.024 42.7643 150.411 42.1764 150.621 41.4199H153.465C153.255 42.8783 152.59 44.054 151.469 44.9473C150.357 45.8314 148.962 46.2734 147.285 46.2734C145.216 46.2734 143.571 45.6035 142.35 44.2637C141.128 42.9238 140.518 41.1055 140.518 38.8086C140.518 36.5482 141.128 34.7435 142.35 33.3945C143.58 32.0365 145.216 31.3574 147.258 31.3574C148.962 31.3574 150.361 31.8223 151.455 32.752C152.558 33.6725 153.219 34.8301 153.438 36.2246ZM165.154 46V33.9551H158.783V46H155.844V31.6172H168.107V46H165.154ZM182.449 44.2773C181.21 45.6081 179.555 46.2734 177.486 46.2734C175.417 46.2734 173.763 45.6081 172.523 44.2773C171.284 42.9375 170.664 41.1146 170.664 38.8086C170.664 36.5117 171.284 34.6979 172.523 33.3672C173.763 32.0273 175.417 31.3574 177.486 31.3574C179.555 31.3574 181.21 32.0273 182.449 33.3672C183.689 34.6979 184.309 36.5117 184.309 38.8086C184.309 41.1146 183.689 42.9375 182.449 44.2773ZM177.486 43.8398C178.662 43.8398 179.592 43.3978 180.275 42.5137C180.959 41.6296 181.301 40.3945 181.301 38.8086C181.301 37.2318 180.954 36.0013 180.262 35.1172C179.578 34.2331 178.653 33.791 177.486 33.791C176.32 33.791 175.39 34.2331 174.697 35.1172C174.014 36.0013 173.672 37.2318 173.672 38.8086C173.672 40.3945 174.014 41.6296 174.697 42.5137C175.39 43.3978 176.32 43.8398 177.486 43.8398ZM194.357 31.3848C196.189 31.3848 197.657 32.0547 198.76 33.3945C199.863 34.7344 200.414 36.5391 200.414 38.8086C200.414 41.0781 199.867 42.8874 198.773 44.2363C197.68 45.5762 196.226 46.2461 194.412 46.2461C193.391 46.2461 192.484 46.0137 191.691 45.5488C190.908 45.084 190.306 44.446 189.887 43.6348H189.818V50.7578H186.865V31.6172H189.723V34.0918H189.777C190.206 33.2533 190.821 32.5924 191.623 32.1094C192.425 31.6263 193.337 31.3848 194.357 31.3848ZM193.578 43.7441C194.745 43.7441 195.67 43.3021 196.354 42.418C197.037 41.5247 197.379 40.3216 197.379 38.8086C197.379 37.3047 197.037 36.1061 196.354 35.2129C195.67 34.3197 194.745 33.873 193.578 33.873C192.448 33.873 191.536 34.3242 190.844 35.2266C190.151 36.1289 189.805 37.3229 189.805 38.8086C189.805 40.3034 190.146 41.502 190.83 42.4043C191.523 43.2975 192.439 43.7441 193.578 43.7441ZM213.402 31.6172V33.9551H208.891V46H205.951V33.9551H201.439V31.6172H213.402ZM218.475 46H215.562V31.6172H218.475V41.6934H218.584L225.229 31.6172H228.141V46H225.229V35.8965H225.119L218.475 46ZM237.246 33.7637H234.225V37.5371H236.959C238.627 37.5371 239.461 36.8991 239.461 35.623C239.461 35.0306 239.27 34.5749 238.887 34.2559C238.504 33.9277 237.957 33.7637 237.246 33.7637ZM237.15 39.6016H234.225V43.8535H237.479C238.317 43.8535 238.955 43.6758 239.393 43.3203C239.83 42.9557 240.049 42.4271 240.049 41.7344C240.049 40.3125 239.083 39.6016 237.15 39.6016ZM231.312 46V31.6172H237.848C239.251 31.6172 240.35 31.9453 241.143 32.6016C241.945 33.2487 242.346 34.1419 242.346 35.2812C242.346 36.0286 242.109 36.7031 241.635 37.3047C241.17 37.8971 240.591 38.2572 239.898 38.3848V38.4941C240.828 38.6217 241.576 38.9909 242.141 39.6016C242.706 40.2031 242.988 40.9551 242.988 41.8574C242.988 43.1243 242.533 44.1315 241.621 44.8789C240.719 45.6263 239.488 46 237.93 46H231.312ZM255.061 46V39.7383H248.553V46H245.613V31.6172H248.553V37.4141H255.061V31.6172H258V46H255.061ZM272.355 44.2773C271.116 45.6081 269.462 46.2734 267.393 46.2734C265.324 46.2734 263.669 45.6081 262.43 44.2773C261.19 42.9375 260.57 41.1146 260.57 38.8086C260.57 36.5117 261.19 34.6979 262.43 33.3672C263.669 32.0273 265.324 31.3574 267.393 31.3574C269.462 31.3574 271.116 32.0273 272.355 33.3672C273.595 34.6979 274.215 36.5117 274.215 38.8086C274.215 41.1146 273.595 42.9375 272.355 44.2773ZM267.393 43.8398C268.568 43.8398 269.498 43.3978 270.182 42.5137C270.865 41.6296 271.207 40.3945 271.207 38.8086C271.207 37.2318 270.861 36.0013 270.168 35.1172C269.484 34.2331 268.559 33.791 267.393 33.791C266.226 33.791 265.296 34.2331 264.604 35.1172C263.92 36.0013 263.578 37.2318 263.578 38.8086C263.578 40.3945 263.92 41.6296 264.604 42.5137C265.296 43.3978 266.226 43.8398 267.393 43.8398ZM279.602 46H276.758V31.6172H280.463L285.07 42.1582H285.18L289.814 31.6172H293.438V46H290.566V36.0195H290.471L286.164 45.4395H284.004L279.697 36.0195H279.602V46ZM33.8633 69.2246H31.0195C30.819 68.5137 30.4362 67.9349 29.8711 67.4883C29.306 67.0417 28.5859 66.8184 27.7109 66.8184C26.5716 66.8184 25.6556 67.2741 24.9629 68.1855C24.2793 69.0879 23.9375 70.2956 23.9375 71.8086C23.9375 73.3581 24.2793 74.5794 24.9629 75.4727C25.6556 76.3568 26.5807 76.7988 27.7383 76.7988C28.6042 76.7988 29.3197 76.5938 29.8848 76.1836C30.4499 75.7643 30.8372 75.1764 31.0469 74.4199H33.8906C33.681 75.8783 33.0156 77.054 31.8945 77.9473C30.7826 78.8314 29.388 79.2734 27.7109 79.2734C25.6419 79.2734 23.9967 78.6035 22.7754 77.2637C21.554 75.9238 20.9434 74.1055 20.9434 71.8086C20.9434 69.5482 21.554 67.7435 22.7754 66.3945C24.0059 65.0365 25.6419 64.3574 27.6836 64.3574C29.388 64.3574 30.7871 64.8223 31.8809 65.752C32.9837 66.6725 33.6445 67.8301 33.8633 69.2246ZM41.3145 76.9082C42.3535 76.9082 43.224 76.5938 43.9258 75.9648C44.6367 75.3268 44.9922 74.543 44.9922 73.6133V72.4785L41.4512 72.6973C40.5671 72.7611 39.8835 72.9798 39.4004 73.3535C38.9264 73.7181 38.6895 74.2103 38.6895 74.8301C38.6895 75.459 38.9264 75.9648 39.4004 76.3477C39.8835 76.7214 40.5215 76.9082 41.3145 76.9082ZM40.4941 79.2461C39.0814 79.2461 37.9284 78.8451 37.0352 78.043C36.151 77.2409 35.709 76.1973 35.709 74.9121C35.709 73.6543 36.1738 72.6562 37.1035 71.918C38.0332 71.1706 39.3503 70.7513 41.0547 70.6602L44.9922 70.4277V69.3203C44.9922 68.5182 44.737 67.8939 44.2266 67.4473C43.7161 66.9915 43.0098 66.7637 42.1074 66.7637C41.2689 66.7637 40.5853 66.9505 40.0566 67.3242C39.5371 67.6979 39.209 68.2129 39.0723 68.8691H36.2832C36.3652 67.5384 36.9395 66.4538 38.0059 65.6152C39.0723 64.7767 40.4759 64.3574 42.2168 64.3574C43.9577 64.3574 45.3431 64.7858 46.373 65.6426C47.4121 66.4993 47.9316 67.6478 47.9316 69.0879V79H45.1016V76.6348H45.0332C44.623 77.4277 43.9987 78.0612 43.1602 78.5352C42.3307 79.0091 41.4421 79.2461 40.4941 79.2461ZM53.8789 79H51.0352V64.6172H54.7402L59.3477 75.1582H59.457L64.0918 64.6172H67.7148V79H64.8438V69.0195H64.748L60.4414 78.4395H58.2812L53.9746 69.0195H53.8789V79ZM82.043 77.2773C80.8034 78.6081 79.1491 79.2734 77.0801 79.2734C75.0111 79.2734 73.3568 78.6081 72.1172 77.2773C70.8776 75.9375 70.2578 74.1146 70.2578 71.8086C70.2578 69.5117 70.8776 67.6979 72.1172 66.3672C73.3568 65.0273 75.0111 64.3574 77.0801 64.3574C79.1491 64.3574 80.8034 65.0273 82.043 66.3672C83.2826 67.6979 83.9023 69.5117 83.9023 71.8086C83.9023 74.1146 83.2826 75.9375 82.043 77.2773ZM77.0801 76.8398C78.2559 76.8398 79.1855 76.3978 79.8691 75.5137C80.5527 74.6296 80.8945 73.3945 80.8945 71.8086C80.8945 70.2318 80.5482 69.0013 79.8555 68.1172C79.1719 67.2331 78.2467 66.791 77.0801 66.791C75.9134 66.791 74.9837 67.2331 74.291 68.1172C73.6074 69.0013 73.2656 70.2318 73.2656 71.8086C73.2656 73.3945 73.6074 74.6296 74.291 75.5137C74.9837 76.3978 75.9134 76.8398 77.0801 76.8398ZM90.2734 72.4512C90.2188 73.3079 90.1322 74.0645 90.0137 74.7207C89.8952 75.377 89.722 75.9922 89.4941 76.5664C89.2663 77.1315 88.9883 77.6009 88.6602 77.9746C88.332 78.3392 87.9219 78.6263 87.4297 78.8359C86.9466 79.0365 86.3861 79.1367 85.748 79.1367C85.347 79.1367 85.0143 79.0866 84.75 78.9863V76.3887C84.9961 76.4616 85.2559 76.498 85.5293 76.498C86.1855 76.498 86.6686 76.1426 86.9785 75.4316C87.2884 74.7207 87.4889 73.6862 87.5801 72.3281L88.0723 64.6172H98.0391V79H95.0996V66.9551H90.6699L90.2734 72.4512ZM109.742 67.7754C109.095 67.0827 108.261 66.7363 107.24 66.7363C106.219 66.7363 105.372 67.0872 104.697 67.7891C104.023 68.4818 103.649 69.3796 103.576 70.4824H110.768C110.731 69.3704 110.389 68.4681 109.742 67.7754ZM110.754 74.7754H113.557C113.347 76.097 112.673 77.1771 111.533 78.0156C110.394 78.8542 109.004 79.2734 107.363 79.2734C105.258 79.2734 103.599 78.6126 102.387 77.291C101.184 75.9603 100.582 74.1556 100.582 71.877C100.582 69.6165 101.184 67.7982 102.387 66.4219C103.599 65.0456 105.217 64.3574 107.24 64.3574C109.227 64.3574 110.804 65.0091 111.971 66.3125C113.137 67.6068 113.721 69.3477 113.721 71.5352V72.5469H103.562V72.7246C103.562 73.9824 103.913 74.9896 104.615 75.7461C105.317 76.5026 106.256 76.8809 107.432 76.8809C108.261 76.8809 108.972 76.6895 109.564 76.3066C110.157 75.9238 110.553 75.4134 110.754 74.7754ZM126.668 64.6172V66.9551H122.156V79H119.217V66.9551H114.705V64.6172H126.668ZM137.086 67.7754C136.439 67.0827 135.605 66.7363 134.584 66.7363C133.563 66.7363 132.715 67.0872 132.041 67.7891C131.367 68.4818 130.993 69.3796 130.92 70.4824H138.111C138.075 69.3704 137.733 68.4681 137.086 67.7754ZM138.098 74.7754H140.9C140.691 76.097 140.016 77.1771 138.877 78.0156C137.738 78.8542 136.348 79.2734 134.707 79.2734C132.602 79.2734 130.943 78.6126 129.73 77.291C128.527 75.9603 127.926 74.1556 127.926 71.877C127.926 69.6165 128.527 67.7982 129.73 66.4219C130.943 65.0456 132.561 64.3574 134.584 64.3574C136.571 64.3574 138.148 65.0091 139.314 66.3125C140.481 67.6068 141.064 69.3477 141.064 71.5352V72.5469H130.906V72.7246C130.906 73.9824 131.257 74.9896 131.959 75.7461C132.661 76.5026 133.6 76.8809 134.775 76.8809C135.605 76.8809 136.316 76.6895 136.908 76.3066C137.501 75.9238 137.897 75.4134 138.098 74.7754Z" fill="#292323"></path>
  <rect y="237" width="315" height="78" fill="#395CB8"></rect>
  <path d="M29.6647 282H27.9225V272.25H22.2819V282H20.5241V270.727H29.6647V282ZM38.2231 281.016C37.5148 281.776 36.5695 282.156 35.3872 282.156C34.2049 282.156 33.2596 281.776 32.5513 281.016C31.8429 280.25 31.4888 279.208 31.4888 277.891C31.4888 276.578 31.8429 275.542 32.5513 274.781C33.2596 274.016 34.2049 273.633 35.3872 273.633C36.5695 273.633 37.5148 274.016 38.2231 274.781C38.9315 275.542 39.2856 276.578 39.2856 277.891C39.2856 279.208 38.9315 280.25 38.2231 281.016ZM35.3872 280.766C36.0591 280.766 36.5903 280.513 36.9809 280.008C37.3716 279.503 37.5669 278.797 37.5669 277.891C37.5669 276.99 37.369 276.286 36.9731 275.781C36.5825 275.276 36.0539 275.023 35.3872 275.023C34.7205 275.023 34.1893 275.276 33.7934 275.781C33.4028 276.286 33.2075 276.99 33.2075 277.891C33.2075 278.797 33.4028 279.503 33.7934 280.008C34.1893 280.513 34.7205 280.766 35.3872 280.766ZM46.2269 280.664V275.117H43.3675L43.1409 278.258C43.0732 279.31 42.8597 280.091 42.5003 280.602V280.664H46.2269ZM41.555 284.156H40.0003V280.664H40.6644C41.206 280.326 41.5238 279.5 41.6175 278.188L41.9144 273.781H47.9066V280.664H49.18V284.156H47.6175V282H41.555V284.156ZM54.7697 273.648C55.8166 273.648 56.6551 274.031 57.2853 274.797C57.9155 275.562 58.2306 276.594 58.2306 277.891C58.2306 279.188 57.9181 280.221 57.2931 280.992C56.6681 281.758 55.8374 282.141 54.8009 282.141C54.2176 282.141 53.6994 282.008 53.2463 281.742C52.7983 281.477 52.4546 281.112 52.215 280.648H52.1759V284.719H50.4884V273.781H52.1213V275.195H52.1525C52.3973 274.716 52.7489 274.339 53.2072 274.062C53.6655 273.786 54.1864 273.648 54.7697 273.648ZM54.3244 280.711C54.991 280.711 55.5197 280.458 55.9103 279.953C56.3009 279.443 56.4963 278.755 56.4963 277.891C56.4963 277.031 56.3009 276.346 55.9103 275.836C55.5197 275.326 54.991 275.07 54.3244 275.07C53.6785 275.07 53.1577 275.328 52.7619 275.844C52.366 276.359 52.1681 277.042 52.1681 277.891C52.1681 278.745 52.3634 279.43 52.7541 279.945C53.1499 280.456 53.6733 280.711 54.3244 280.711ZM66.2188 281.016C65.5104 281.776 64.5651 282.156 63.3828 282.156C62.2005 282.156 61.2552 281.776 60.5469 281.016C59.8385 280.25 59.4844 279.208 59.4844 277.891C59.4844 276.578 59.8385 275.542 60.5469 274.781C61.2552 274.016 62.2005 273.633 63.3828 273.633C64.5651 273.633 65.5104 274.016 66.2188 274.781C66.9271 275.542 67.2812 276.578 67.2812 277.891C67.2812 279.208 66.9271 280.25 66.2188 281.016ZM63.3828 280.766C64.0547 280.766 64.5859 280.513 64.9766 280.008C65.3672 279.503 65.5625 278.797 65.5625 277.891C65.5625 276.99 65.3646 276.286 64.9688 275.781C64.5781 275.276 64.0495 275.023 63.3828 275.023C62.7161 275.023 62.1849 275.276 61.7891 275.781C61.3984 276.286 61.2031 276.99 61.2031 277.891C61.2031 278.797 61.3984 279.503 61.7891 280.008C62.1849 280.513 62.7161 280.766 63.3828 280.766ZM72.5584 282.156C71.2668 282.156 70.2824 281.74 69.6053 280.906C68.9334 280.073 68.5975 278.846 68.5975 277.227C68.5975 275.701 68.7511 274.469 69.0584 273.531C69.3709 272.589 69.8501 271.891 70.4959 271.438C71.147 270.984 71.9985 270.74 73.0506 270.703L73.785 270.68C74.8006 270.633 75.5168 270.497 75.9334 270.273V271.672C75.8241 271.776 75.5767 271.87 75.1912 271.953C74.8058 272.036 74.3683 272.089 73.8787 272.109L73.16 272.133C72.6131 272.154 72.1522 272.232 71.7772 272.367C71.4074 272.497 71.1001 272.706 70.8553 272.992C70.6105 273.273 70.4204 273.615 70.285 274.016C70.1496 274.411 70.0428 274.911 69.9647 275.516H70.0272C70.2876 275.031 70.6574 274.661 71.1366 274.406C71.6209 274.146 72.186 274.016 72.8319 274.016C73.9412 274.016 74.8241 274.375 75.4803 275.094C76.1418 275.812 76.4725 276.776 76.4725 277.984C76.4725 279.276 76.1235 280.294 75.4256 281.039C74.7277 281.784 73.772 282.156 72.5584 282.156ZM72.5428 280.742C73.2407 280.742 73.7824 280.505 74.1678 280.031C74.5532 279.552 74.7459 278.878 74.7459 278.008C74.7459 277.18 74.5532 276.536 74.1678 276.078C73.7824 275.62 73.2407 275.391 72.5428 275.391C71.8397 275.391 71.2928 275.62 70.9022 276.078C70.5168 276.536 70.3241 277.18 70.3241 278.008C70.3241 278.883 70.5168 279.557 70.9022 280.031C71.2928 280.505 71.8397 280.742 72.5428 280.742ZM83.4841 282V278.422H79.7653V282H78.0856V273.781H79.7653V277.094H83.4841V273.781H85.1637V282H83.4841ZM92.0269 275.586C91.6571 275.19 91.1805 274.992 90.5972 274.992C90.0139 274.992 89.5295 275.193 89.1441 275.594C88.7586 275.99 88.5451 276.503 88.5034 277.133H92.6128C92.592 276.497 92.3967 275.982 92.0269 275.586ZM92.605 279.586H94.2066C94.0868 280.341 93.7014 280.958 93.0503 281.438C92.3993 281.917 91.605 282.156 90.6675 282.156C89.4644 282.156 88.5165 281.779 87.8238 281.023C87.1363 280.263 86.7925 279.232 86.7925 277.93C86.7925 276.638 87.1363 275.599 87.8238 274.812C88.5165 274.026 89.4409 273.633 90.5972 273.633C91.7326 273.633 92.6336 274.005 93.3003 274.75C93.967 275.49 94.3003 276.484 94.3003 277.734V278.312H88.4956V278.414C88.4956 279.133 88.6961 279.708 89.0972 280.141C89.4982 280.573 90.0347 280.789 90.7066 280.789C91.1805 280.789 91.5868 280.68 91.9253 280.461C92.2639 280.242 92.4904 279.951 92.605 279.586ZM100.781 275.586C100.411 275.19 99.9343 274.992 99.3509 274.992C98.7676 274.992 98.2832 275.193 97.8978 275.594C97.5124 275.99 97.2989 276.503 97.2572 277.133H101.367C101.346 276.497 101.15 275.982 100.781 275.586ZM101.359 279.586H102.96C102.841 280.341 102.455 280.958 101.804 281.438C101.153 281.917 100.359 282.156 99.4212 282.156C98.2181 282.156 97.2702 281.779 96.5775 281.023C95.89 280.263 95.5462 279.232 95.5462 277.93C95.5462 276.638 95.89 275.599 96.5775 274.812C97.2702 274.026 98.1947 273.633 99.3509 273.633C100.486 273.633 101.387 274.005 102.054 274.75C102.721 275.49 103.054 276.484 103.054 277.734V278.312H97.2494V278.414C97.2494 279.133 97.4499 279.708 97.8509 280.141C98.252 280.573 98.7884 280.789 99.4603 280.789C99.9343 280.789 100.341 280.68 100.679 280.461C101.018 280.242 101.244 279.951 101.359 279.586Z" fill="white"></path>
  <path d="M228.75 115C231.937 115 234.824 116.89 236.1 119.809L248.532 148.212L265.521 147.156C268.132 146.994 270.7 147.875 272.661 149.606C274.622 151.336 275.816 153.775 275.979 156.386L276 157C276 159.616 274.961 162.125 273.111 163.975C271.261 165.825 268.752 166.865 266.135 166.865L265.521 166.844L248.532 165.783L236.105 194.186C235.48 195.617 234.452 196.834 233.145 197.689C231.839 198.544 230.311 199 228.75 199C227.521 199 226.341 198.512 225.472 197.642C224.603 196.773 224.114 195.594 224.114 194.364L224.125 194.076L227.816 164.486L214.911 163.678L208.926 175.648C208.574 176.355 208.031 176.949 207.36 177.364C206.689 177.78 205.915 178 205.125 178C204.429 178 203.761 177.723 203.269 177.231C202.777 176.739 202.5 176.071 202.5 175.375V162.901L196.925 162.56C195.59 162.477 194.338 161.888 193.423 160.913C192.508 159.939 191.999 158.652 192 157.315V156.674C192 155.339 192.51 154.053 193.424 153.079C194.339 152.106 195.591 151.518 196.925 151.435L202.5 151.094V138.625C202.5 137.929 202.777 137.261 203.269 136.769C203.761 136.277 204.429 136 205.125 136C205.914 136 206.687 136.22 207.358 136.634C208.03 137.049 208.572 137.642 208.926 138.347L214.906 150.317L227.816 149.508L224.151 120.213C224.069 119.561 224.127 118.899 224.321 118.27C224.514 117.642 224.839 117.062 225.274 116.569C225.709 116.076 226.244 115.681 226.843 115.411C227.443 115.14 228.093 115 228.75 115V115Z" fill="#CE3558"></path>
</svg>
