<?xml version="1.0" encoding="UTF-8"?>
<svg xmlns="http://www.w3.org/2000/svg" width="315" height="315" viewBox="0 0 315 315" fill="none">
  <rect width="315" height="315" fill="white"></rect>
  <rect y="237" width="315" height="78" fill="#395CB8"></rect>
  <path d="M37.9512 46H34.9023V28.9375H25.0312V46H21.9551V26.2715H37.9512V46ZM48.998 31.3848C50.8301 31.3848 52.2975 32.0547 53.4004 33.3945C54.5033 34.7344 55.0547 36.5391 55.0547 38.8086C55.0547 41.0781 54.5078 42.8874 53.4141 44.2363C52.3203 45.5762 50.8665 46.2461 49.0527 46.2461C48.0319 46.2461 47.125 46.0137 46.332 45.5488C45.5482 45.084 44.9466 44.446 44.5273 43.6348H44.459V50.7578H41.5059V31.6172H44.3633V34.0918H44.418C44.8464 33.2533 45.4616 32.5924 46.2637 32.1094C47.0658 31.6263 47.9772 31.3848 48.998 31.3848ZM48.2188 43.7441C49.3854 43.7441 50.3105 43.3021 50.9941 42.418C51.6777 41.5247 52.0195 40.3216 52.0195 38.8086C52.0195 37.3047 51.6777 36.1061 50.9941 35.2129C50.3105 34.3197 49.3854 33.873 48.2188 33.873C47.0885 33.873 46.1771 34.3242 45.4844 35.2266C44.7917 36.1289 44.4453 37.3229 44.4453 38.8086C44.4453 40.3034 44.7871 41.502 45.4707 42.4043C46.1634 43.2975 47.0794 43.7441 48.2188 43.7441ZM70.4082 46V31.6172H73.334V46H70.4082ZM63.0254 38.3711H60.5371V43.6758H63.0254C63.873 43.6758 64.5475 43.4342 65.0488 42.9512C65.5592 42.459 65.8145 41.8164 65.8145 41.0234C65.8145 40.2214 65.5592 39.5788 65.0488 39.0957C64.5384 38.6126 63.8639 38.3711 63.0254 38.3711ZM57.5977 46V31.6172H60.5371V36.0605H63.2852C64.9531 36.0605 66.2793 36.5117 67.2637 37.4141C68.2572 38.3073 68.7539 39.5104 68.7539 41.0234C68.7539 42.5456 68.2572 43.7578 67.2637 44.6602C66.2793 45.5534 64.9531 46 63.2852 46H57.5977ZM90.0273 38.3711L96.166 46H92.502L87.2109 39.3691H87.1016V46H84.1895V39.3691H84.0938L78.8027 46H75.1934L81.291 38.4258L75.3574 31.6172H78.8711L84.0938 37.7695H84.1895V31.6172H87.1016V37.7695H87.2109L92.4336 31.6172H95.9199L90.0273 38.3711ZM108.703 44.2773C107.464 45.6081 105.809 46.2734 103.74 46.2734C101.671 46.2734 100.017 45.6081 98.7773 44.2773C97.5378 42.9375 96.918 41.1146 96.918 38.8086C96.918 36.5117 97.5378 34.6979 98.7773 33.3672C100.017 32.0273 101.671 31.3574 103.74 31.3574C105.809 31.3574 107.464 32.0273 108.703 33.3672C109.943 34.6979 110.562 36.5117 110.562 38.8086C110.562 41.1146 109.943 42.9375 108.703 44.2773ZM103.74 43.8398C104.916 43.8398 105.846 43.3978 106.529 42.5137C107.213 41.6296 107.555 40.3945 107.555 38.8086C107.555 37.2318 107.208 36.0013 106.516 35.1172C105.832 34.2331 104.907 33.791 103.74 33.791C102.574 33.791 101.644 34.2331 100.951 35.1172C100.268 36.0013 99.9258 37.2318 99.9258 38.8086C99.9258 40.3945 100.268 41.6296 100.951 42.5137C101.644 43.3978 102.574 43.8398 103.74 43.8398ZM118.943 38.3711L125.561 46H121.855L116.154 39.3691H116.045V46H113.105V31.6172H116.045V37.7695H116.154L121.787 31.6172H125.314L118.943 38.3711ZM145.371 36.2246H142.527C142.327 35.5137 141.944 34.9349 141.379 34.4883C140.814 34.0417 140.094 33.8184 139.219 33.8184C138.079 33.8184 137.163 34.2741 136.471 35.1855C135.787 36.0879 135.445 37.2956 135.445 38.8086C135.445 40.3581 135.787 41.5794 136.471 42.4727C137.163 43.3568 138.089 43.7988 139.246 43.7988C140.112 43.7988 140.827 43.5938 141.393 43.1836C141.958 42.7643 142.345 42.1764 142.555 41.4199H145.398C145.189 42.8783 144.523 44.054 143.402 44.9473C142.29 45.8314 140.896 46.2734 139.219 46.2734C137.15 46.2734 135.505 45.6035 134.283 44.2637C133.062 42.9238 132.451 41.1055 132.451 38.8086C132.451 36.5482 133.062 34.7435 134.283 33.3945C135.514 32.0365 137.15 31.3574 139.191 31.3574C140.896 31.3574 142.295 31.8223 143.389 32.752C144.492 33.6725 145.152 34.8301 145.371 36.2246ZM30.8965 79V66.9551H24.5254V79H21.5859V64.6172H33.8496V79H30.8965ZM42.0801 76.9082C43.1191 76.9082 43.9896 76.5938 44.6914 75.9648C45.4023 75.3268 45.7578 74.543 45.7578 73.6133V72.4785L42.2168 72.6973C41.3327 72.7611 40.6491 72.9798 40.166 73.3535C39.6921 73.7181 39.4551 74.2103 39.4551 74.8301C39.4551 75.459 39.6921 75.9648 40.166 76.3477C40.6491 76.7214 41.2871 76.9082 42.0801 76.9082ZM41.2598 79.2461C39.847 79.2461 38.694 78.8451 37.8008 78.043C36.9167 77.2409 36.4746 76.1973 36.4746 74.9121C36.4746 73.6543 36.9395 72.6562 37.8691 71.918C38.7988 71.1706 40.1159 70.7513 41.8203 70.6602L45.7578 70.4277V69.3203C45.7578 68.5182 45.5026 67.8939 44.9922 67.4473C44.4818 66.9915 43.7754 66.7637 42.873 66.7637C42.0345 66.7637 41.3509 66.9505 40.8223 67.3242C40.3027 67.6979 39.9746 68.2129 39.8379 68.8691H37.0488C37.1309 67.5384 37.7051 66.4538 38.7715 65.6152C39.8379 64.7767 41.2415 64.3574 42.9824 64.3574C44.7233 64.3574 46.1087 64.7858 47.1387 65.6426C48.1777 66.4993 48.6973 67.6478 48.6973 69.0879V79H45.8672V76.6348H45.7988C45.3887 77.4277 44.7643 78.0612 43.9258 78.5352C43.0964 79.0091 42.2077 79.2461 41.2598 79.2461ZM59.3066 64.3848C61.1387 64.3848 62.6061 65.0547 63.709 66.3945C64.8118 67.7344 65.3633 69.5391 65.3633 71.8086C65.3633 74.0781 64.8164 75.8874 63.7227 77.2363C62.6289 78.5762 61.1751 79.2461 59.3613 79.2461C58.3405 79.2461 57.4336 79.0137 56.6406 78.5488C55.8568 78.084 55.2552 77.446 54.8359 76.6348H54.7676V83.7578H51.8145V64.6172H54.6719V67.0918H54.7266C55.1549 66.2533 55.7702 65.5924 56.5723 65.1094C57.3743 64.6263 58.2858 64.3848 59.3066 64.3848ZM58.5273 76.7441C59.694 76.7441 60.6191 76.3021 61.3027 75.418C61.9863 74.5247 62.3281 73.3216 62.3281 71.8086C62.3281 70.3047 61.9863 69.1061 61.3027 68.2129C60.6191 67.3197 59.694 66.873 58.5273 66.873C57.3971 66.873 56.4857 67.3242 55.793 68.2266C55.1003 69.1289 54.7539 70.3229 54.7539 71.8086C54.7539 73.3034 55.0957 74.502 55.7793 75.4043C56.472 76.2975 57.388 76.7441 58.5273 76.7441ZM72.9512 76.9082C73.9902 76.9082 74.8607 76.5938 75.5625 75.9648C76.2734 75.3268 76.6289 74.543 76.6289 73.6133V72.4785L73.0879 72.6973C72.2038 72.7611 71.5202 72.9798 71.0371 73.3535C70.5632 73.7181 70.3262 74.2103 70.3262 74.8301C70.3262 75.459 70.5632 75.9648 71.0371 76.3477C71.5202 76.7214 72.1582 76.9082 72.9512 76.9082ZM72.1309 79.2461C70.7181 79.2461 69.5651 78.8451 68.6719 78.043C67.7878 77.2409 67.3457 76.1973 67.3457 74.9121C67.3457 73.6543 67.8105 72.6562 68.7402 71.918C69.6699 71.1706 70.987 70.7513 72.6914 70.6602L76.6289 70.4277V69.3203C76.6289 68.5182 76.3737 67.8939 75.8633 67.4473C75.3529 66.9915 74.6465 66.7637 73.7441 66.7637C72.9056 66.7637 72.222 66.9505 71.6934 67.3242C71.1738 67.6979 70.8457 68.2129 70.709 68.8691H67.9199C68.002 67.5384 68.5762 66.4538 69.6426 65.6152C70.709 64.7767 72.1126 64.3574 73.8535 64.3574C75.5944 64.3574 76.9798 64.7858 78.0098 65.6426C79.0488 66.4993 79.5684 67.6478 79.5684 69.0879V79H76.7383V76.6348H76.6699C76.2598 77.4277 75.6354 78.0612 74.7969 78.5352C73.9674 79.0091 73.0788 79.2461 72.1309 79.2461ZM82.6719 79V64.6172H85.6113V76.6621H90.4375V64.6172H93.377V76.6621H98.2031V64.6172H101.143V79H82.6719ZM116.332 79.2734C114.4 79.2734 112.846 78.6992 111.67 77.5508C110.494 76.3932 109.824 74.7891 109.66 72.7383H107.268V79H104.328V64.6172H107.268V70.4141H109.715C109.952 68.5091 110.654 67.0234 111.82 65.957C112.987 64.8906 114.491 64.3574 116.332 64.3574C118.419 64.3574 120.06 65.0228 121.254 66.3535C122.457 67.6751 123.059 69.4935 123.059 71.8086C123.059 74.1328 122.457 75.9603 121.254 77.291C120.06 78.6126 118.419 79.2734 116.332 79.2734ZM113.598 75.5C114.245 76.3659 115.156 76.7988 116.332 76.7988C117.508 76.7988 118.419 76.3659 119.066 75.5C119.714 74.625 120.037 73.3945 120.037 71.8086C120.037 70.2227 119.714 68.9967 119.066 68.1309C118.419 67.265 117.508 66.832 116.332 66.832C115.156 66.832 114.245 67.265 113.598 68.1309C112.96 68.9967 112.641 70.2227 112.641 71.8086C112.641 73.3945 112.96 74.625 113.598 75.5ZM136.047 64.6172V66.9551H131.535V79H128.596V66.9551H124.084V64.6172H136.047ZM149.09 77.2773C147.85 78.6081 146.196 79.2734 144.127 79.2734C142.058 79.2734 140.404 78.6081 139.164 77.2773C137.924 75.9375 137.305 74.1146 137.305 71.8086C137.305 69.5117 137.924 67.6979 139.164 66.3672C140.404 65.0273 142.058 64.3574 144.127 64.3574C146.196 64.3574 147.85 65.0273 149.09 66.3672C150.329 67.6979 150.949 69.5117 150.949 71.8086C150.949 74.1146 150.329 75.9375 149.09 77.2773ZM144.127 76.8398C145.303 76.8398 146.232 76.3978 146.916 75.5137C147.6 74.6296 147.941 73.3945 147.941 71.8086C147.941 70.2318 147.595 69.0013 146.902 68.1172C146.219 67.2331 145.294 66.791 144.127 66.791C142.96 66.791 142.031 67.2331 141.338 68.1172C140.654 69.0013 140.312 70.2318 140.312 71.8086C140.312 73.3945 140.654 74.6296 141.338 75.5137C142.031 76.3978 142.96 76.8398 144.127 76.8398ZM156.336 79H153.492V64.6172H157.197L161.805 75.1582H161.914L166.549 64.6172H170.172V79H167.301V69.0195H167.205L162.898 78.4395H160.738L156.432 69.0195H156.336V79Z" fill="#292323"></path>
  <path d="M29.6647 282H27.9225V272.25H22.2819V282H20.5241V270.727H29.6647V282ZM38.2231 281.016C37.5148 281.776 36.5695 282.156 35.3872 282.156C34.2049 282.156 33.2596 281.776 32.5513 281.016C31.8429 280.25 31.4888 279.208 31.4888 277.891C31.4888 276.578 31.8429 275.542 32.5513 274.781C33.2596 274.016 34.2049 273.633 35.3872 273.633C36.5695 273.633 37.5148 274.016 38.2231 274.781C38.9315 275.542 39.2856 276.578 39.2856 277.891C39.2856 279.208 38.9315 280.25 38.2231 281.016ZM35.3872 280.766C36.0591 280.766 36.5903 280.513 36.9809 280.008C37.3716 279.503 37.5669 278.797 37.5669 277.891C37.5669 276.99 37.369 276.286 36.9731 275.781C36.5825 275.276 36.0539 275.023 35.3872 275.023C34.7205 275.023 34.1893 275.276 33.7934 275.781C33.4028 276.286 33.2075 276.99 33.2075 277.891C33.2075 278.797 33.4028 279.503 33.7934 280.008C34.1893 280.513 34.7205 280.766 35.3872 280.766ZM46.2269 280.664V275.117H43.3675L43.1409 278.258C43.0732 279.31 42.8597 280.091 42.5003 280.602V280.664H46.2269ZM41.555 284.156H40.0003V280.664H40.6644C41.206 280.326 41.5238 279.5 41.6175 278.188L41.9144 273.781H47.9066V280.664H49.18V284.156H47.6175V282H41.555V284.156ZM54.7697 273.648C55.8166 273.648 56.6551 274.031 57.2853 274.797C57.9155 275.562 58.2306 276.594 58.2306 277.891C58.2306 279.188 57.9181 280.221 57.2931 280.992C56.6681 281.758 55.8374 282.141 54.8009 282.141C54.2176 282.141 53.6994 282.008 53.2463 281.742C52.7983 281.477 52.4546 281.112 52.215 280.648H52.1759V284.719H50.4884V273.781H52.1213V275.195H52.1525C52.3973 274.716 52.7489 274.339 53.2072 274.062C53.6655 273.786 54.1864 273.648 54.7697 273.648ZM54.3244 280.711C54.991 280.711 55.5197 280.458 55.9103 279.953C56.3009 279.443 56.4963 278.755 56.4963 277.891C56.4963 277.031 56.3009 276.346 55.9103 275.836C55.5197 275.326 54.991 275.07 54.3244 275.07C53.6785 275.07 53.1577 275.328 52.7619 275.844C52.366 276.359 52.1681 277.042 52.1681 277.891C52.1681 278.745 52.3634 279.43 52.7541 279.945C53.1499 280.456 53.6733 280.711 54.3244 280.711ZM66.2188 281.016C65.5104 281.776 64.5651 282.156 63.3828 282.156C62.2005 282.156 61.2552 281.776 60.5469 281.016C59.8385 280.25 59.4844 279.208 59.4844 277.891C59.4844 276.578 59.8385 275.542 60.5469 274.781C61.2552 274.016 62.2005 273.633 63.3828 273.633C64.5651 273.633 65.5104 274.016 66.2188 274.781C66.9271 275.542 67.2812 276.578 67.2812 277.891C67.2812 279.208 66.9271 280.25 66.2188 281.016ZM63.3828 280.766C64.0547 280.766 64.5859 280.513 64.9766 280.008C65.3672 279.503 65.5625 278.797 65.5625 277.891C65.5625 276.99 65.3646 276.286 64.9688 275.781C64.5781 275.276 64.0495 275.023 63.3828 275.023C62.7161 275.023 62.1849 275.276 61.7891 275.781C61.3984 276.286 61.2031 276.99 61.2031 277.891C61.2031 278.797 61.3984 279.503 61.7891 280.008C62.1849 280.513 62.7161 280.766 63.3828 280.766ZM72.5584 282.156C71.2668 282.156 70.2824 281.74 69.6053 280.906C68.9334 280.073 68.5975 278.846 68.5975 277.227C68.5975 275.701 68.7511 274.469 69.0584 273.531C69.3709 272.589 69.8501 271.891 70.4959 271.438C71.147 270.984 71.9985 270.74 73.0506 270.703L73.785 270.68C74.8006 270.633 75.5168 270.497 75.9334 270.273V271.672C75.8241 271.776 75.5767 271.87 75.1912 271.953C74.8058 272.036 74.3683 272.089 73.8787 272.109L73.16 272.133C72.6131 272.154 72.1522 272.232 71.7772 272.367C71.4074 272.497 71.1001 272.706 70.8553 272.992C70.6105 273.273 70.4204 273.615 70.285 274.016C70.1496 274.411 70.0428 274.911 69.9647 275.516H70.0272C70.2876 275.031 70.6574 274.661 71.1366 274.406C71.6209 274.146 72.186 274.016 72.8319 274.016C73.9412 274.016 74.8241 274.375 75.4803 275.094C76.1418 275.812 76.4725 276.776 76.4725 277.984C76.4725 279.276 76.1235 280.294 75.4256 281.039C74.7277 281.784 73.772 282.156 72.5584 282.156ZM72.5428 280.742C73.2407 280.742 73.7824 280.505 74.1678 280.031C74.5532 279.552 74.7459 278.878 74.7459 278.008C74.7459 277.18 74.5532 276.536 74.1678 276.078C73.7824 275.62 73.2407 275.391 72.5428 275.391C71.8397 275.391 71.2928 275.62 70.9022 276.078C70.5168 276.536 70.3241 277.18 70.3241 278.008C70.3241 278.883 70.5168 279.557 70.9022 280.031C71.2928 280.505 71.8397 280.742 72.5428 280.742ZM83.4841 282V278.422H79.7653V282H78.0856V273.781H79.7653V277.094H83.4841V273.781H85.1637V282H83.4841ZM92.0269 275.586C91.6571 275.19 91.1805 274.992 90.5972 274.992C90.0139 274.992 89.5295 275.193 89.1441 275.594C88.7586 275.99 88.5451 276.503 88.5034 277.133H92.6128C92.592 276.497 92.3967 275.982 92.0269 275.586ZM92.605 279.586H94.2066C94.0868 280.341 93.7014 280.958 93.0503 281.438C92.3993 281.917 91.605 282.156 90.6675 282.156C89.4644 282.156 88.5165 281.779 87.8238 281.023C87.1363 280.263 86.7925 279.232 86.7925 277.93C86.7925 276.638 87.1363 275.599 87.8238 274.812C88.5165 274.026 89.4409 273.633 90.5972 273.633C91.7326 273.633 92.6336 274.005 93.3003 274.75C93.967 275.49 94.3003 276.484 94.3003 277.734V278.312H88.4956V278.414C88.4956 279.133 88.6961 279.708 89.0972 280.141C89.4982 280.573 90.0347 280.789 90.7066 280.789C91.1805 280.789 91.5868 280.68 91.9253 280.461C92.2639 280.242 92.4904 279.951 92.605 279.586ZM100.781 275.586C100.411 275.19 99.9343 274.992 99.3509 274.992C98.7676 274.992 98.2832 275.193 97.8978 275.594C97.5124 275.99 97.2989 276.503 97.2572 277.133H101.367C101.346 276.497 101.15 275.982 100.781 275.586ZM101.359 279.586H102.96C102.841 280.341 102.455 280.958 101.804 281.438C101.153 281.917 100.359 282.156 99.4212 282.156C98.2181 282.156 97.2702 281.779 96.5775 281.023C95.89 280.263 95.5462 279.232 95.5462 277.93C95.5462 276.638 95.89 275.599 96.5775 274.812C97.2702 274.026 98.1947 273.633 99.3509 273.633C100.486 273.633 101.387 274.005 102.054 274.75C102.721 275.49 103.054 276.484 103.054 277.734V278.312H97.2494V278.414C97.2494 279.133 97.4499 279.708 97.8509 280.141C98.252 280.573 98.7884 280.789 99.4603 280.789C99.9343 280.789 100.341 280.68 100.679 280.461C101.018 280.242 101.244 279.951 101.359 279.586Z" fill="white"></path>
  <path fill-rule="evenodd" clip-rule="evenodd" d="M222.878 156.667C227.809 151.738 232.738 149.273 237.667 149.273C242.595 149.273 247.524 151.738 252.455 156.667C258.205 151.738 262.52 149.273 265.393 149.273C268.27 149.273 272.583 151.738 278.333 156.667C278.333 134.206 260.127 116 237.667 116C215.206 116 197 134.206 197 156.667C202.75 151.738 207.065 149.273 209.94 149.273C212.815 149.273 217.128 151.738 222.878 156.667Z" stroke="#CE3558" stroke-width="7.33" stroke-linejoin="round"></path>
  <path d="M237.667 197.333L197 156.667C197 156.667 203.771 149.09 209.688 149.184C215.445 149.275 222.878 156.667 222.878 156.667L237.667 197.333ZM237.667 197.333L252.455 156.667M237.667 197.333L278.333 156.667" stroke="#CE3558" stroke-width="7.33" stroke-linecap="round" stroke-linejoin="round"></path>
</svg>
