<svg width="166" height="162" viewBox="0 0 166 162" fill="none" xmlns="http://www.w3.org/2000/svg">
<path fill-rule="evenodd" clip-rule="evenodd" d="M147.17 117.72C142.04 128.474 134.49 137.895 125.113 145.247C115.735 152.598 104.784 157.679 93.1155 160.094C81.4473 162.508 69.3787 162.19 57.8539 159.164C46.3291 156.138 35.6607 150.487 26.6836 142.652C17.7064 134.817 10.6639 125.011 6.10706 114.001C1.55024 102.991 -0.397301 91.0766 0.416816 79.189C1.23093 67.3015 4.78463 55.7635 10.7999 45.4779C16.8151 35.1923 25.1287 26.438 35.0902 19.9C25.9397 26.6749 18.4249 35.4154 13.0988 45.4783C7.77262 55.5412 4.77074 66.6704 4.31405 78.0468C3.85735 89.4231 5.95747 100.757 10.4598 111.215C14.9622 121.672 21.7522 130.987 30.3301 138.473C38.9081 145.96 49.0556 151.428 60.026 154.474C70.9963 157.521 82.5102 158.069 93.7202 156.078C104.93 154.087 115.551 149.607 124.801 142.969C134.051 136.331 141.695 127.703 147.17 117.72" fill="white"/>
<path d="M98.6701 101.14H100.67V95.7301C100.67 93.3701 101.95 92.2901 103.38 92.2901C105.3 92.2901 105.58 93.7001 105.58 95.6801V101.14H107.58V95.4401C107.58 93.5901 108.33 92.2901 110.24 92.2901C112.15 92.2901 112.49 93.7501 112.49 95.2901V101.1H114.49V95.0301C114.49 92.6901 113.74 90.4101 110.49 90.4101C109.818 90.4084 109.158 90.5864 108.577 90.9258C107.997 91.2651 107.518 91.7534 107.19 92.3401C106.901 91.7304 106.436 91.221 105.855 90.8772C105.274 90.5333 104.604 90.3707 103.93 90.4101C103.254 90.3896 102.585 90.555 101.996 90.8882C101.407 91.2214 100.921 91.7097 100.59 92.3001V92.3001V90.6701H98.7401L98.6701 101.14ZM93.9401 96.1401V96.8001C93.9666 97.2009 93.9072 97.6028 93.7658 97.9788C93.6244 98.3548 93.4043 98.6962 93.1203 98.9803C92.8362 99.2643 92.4948 99.4844 92.1188 99.6258C91.7428 99.7671 91.3409 99.8266 90.9401 99.8001C89.5801 99.8001 88.7001 99.2901 88.7001 98.1001C88.7001 96.4301 90.9901 96.1001 92.8601 96.1001L93.9401 96.1401ZM88.4901 93.2401C89.2982 92.4698 90.3737 92.0432 91.4901 92.0501C91.8004 92.0166 92.1143 92.0484 92.4117 92.1433C92.709 92.2383 92.9832 92.3943 93.2167 92.6015C93.4502 92.8086 93.6379 93.0623 93.7676 93.3462C93.8973 93.6301 93.9663 93.9379 93.9701 94.2501V94.6901H92.5201C89.3501 94.6901 86.7801 95.6101 86.7801 98.3001C86.7801 100.3 88.4501 101.42 90.3901 101.42C91.1077 101.47 91.8255 101.325 92.4678 101.001C93.1102 100.678 93.6533 100.187 94.0401 99.5801V99.5801C94.0401 100.1 94.0401 100.63 94.1101 101.16H95.8701C95.801 100.533 95.7709 99.9013 95.7801 99.2701V93.9401C95.7801 92.1401 94.5101 90.4701 91.4301 90.4701C89.9112 90.4499 88.4392 90.9952 87.3001 92.0001L88.4901 93.2401ZM76.4901 95.0901C76.5437 94.2722 76.9081 93.5057 77.5087 92.9479C78.1093 92.3901 78.9005 92.0832 79.7201 92.0901C80.1205 92.0652 80.5217 92.1257 80.8969 92.2677C81.2722 92.4097 81.6129 92.6298 81.8966 92.9135C82.1803 93.1972 82.4005 93.538 82.5424 93.9132C82.6844 94.2885 82.745 94.6896 82.7201 95.0901H76.4901ZM84.8501 96.6701V96.0001C84.8501 93.3101 83.4401 90.5001 79.7701 90.5001C79.0504 90.4832 78.3349 90.6137 77.6674 90.8836C77 91.1534 76.3949 91.5569 75.8891 92.0692C75.3834 92.5815 74.9877 93.1918 74.7265 93.8627C74.4653 94.5335 74.344 95.2506 74.3701 95.9701C74.3277 96.6914 74.4367 97.4137 74.6901 98.0904C74.9435 98.7671 75.3357 99.3833 75.8414 99.8994C76.3471 100.415 76.9553 100.82 77.6267 101.087C78.2981 101.354 79.018 101.478 79.7401 101.45C80.6253 101.498 81.5088 101.328 82.3139 100.957C83.1189 100.586 83.8213 100.024 84.3601 99.3201L82.8701 98.1701C82.5512 98.639 82.1258 99.0258 81.6287 99.2987C81.1316 99.5716 80.5769 99.7229 80.0101 99.7401C79.146 99.8064 78.2909 99.5282 77.6313 98.966C76.9718 98.4039 76.5615 97.6037 76.4901 96.7401L84.8501 96.6701ZM68.5701 101.16H70.6801V87.5601H75.6801V85.5601H63.5801V87.5601H68.5801L68.5701 101.16Z" fill="white"/>
<path d="M43.9399 37.75L44.2199 13.56L49.6499 8.26005C50.5246 7.41558 51.2068 6.39229 51.6499 5.26005L52.3299 4.06004C52.7199 3.06004 52.9099 1.50005 52.1499 0.720046C51.3899 -0.0599544 49.8499 0.100041 48.8599 0.450041L47.5499 1.13004C46.4258 1.53745 45.4026 2.18205 44.5499 3.02004L39.1199 8.32004L14.8799 8.00004C13.6564 7.98616 12.4772 8.45713 11.5999 9.31004L10.0599 10.82C9.94167 10.9362 9.8563 11.0816 9.8124 11.2414C9.76849 11.4012 9.76761 11.5698 9.80986 11.73C9.85405 11.8913 9.94182 12.0373 10.0635 12.152C10.1853 12.2666 10.3362 12.3456 10.4999 12.38L30.6199 17C28.7399 19.07 27.2399 20.87 25.4099 23L23.5299 25.25L15.9999 23.69C15.8494 23.6555 15.6927 23.6594 15.5442 23.7014C15.3956 23.7433 15.26 23.8219 15.1499 23.93L13.8399 25.22C13.7391 25.3154 13.6615 25.4326 13.613 25.5626C13.5644 25.6926 13.5463 25.832 13.5599 25.97C13.5738 26.1066 13.6178 26.2384 13.6886 26.356C13.7595 26.4736 13.8556 26.574 13.9699 26.65L20.9699 31.19L25.3399 38.25L25.4599 38.4C25.606 38.5516 25.8006 38.6471 26.0099 38.67C26.1472 38.6883 26.2869 38.6753 26.4185 38.632C26.5501 38.5887 26.6702 38.5162 26.7699 38.42L28.0899 37.13C28.1991 37.0223 28.28 36.8893 28.3254 36.7427C28.3708 36.5962 28.3792 36.4406 28.3499 36.29L26.8799 28.69L29.1699 26.87C31.3999 25.09 33.2299 23.63 35.3399 21.8L39.4599 42C39.4921 42.1627 39.5676 42.3136 39.6785 42.4368C39.7894 42.56 39.9315 42.6509 40.0899 42.7C40.249 42.748 40.4179 42.7528 40.5796 42.7142C40.7412 42.6756 40.8896 42.5948 41.0099 42.48L42.5499 40.97C42.9855 40.5496 43.3328 40.0465 43.5714 39.4902C43.8101 38.9338 43.9354 38.3354 43.9399 37.73" fill="white"/>
<path d="M83.67 77.38C83.6561 78.481 83.97 79.5612 84.5718 80.4833C85.1736 81.4054 86.036 82.1276 87.0495 82.5581C88.0629 82.9887 89.1815 83.108 90.2629 82.901C91.3443 82.6941 92.3398 82.1701 93.1226 81.3957C93.9054 80.6214 94.4402 79.6317 94.6589 78.5526C94.8777 77.4735 94.7705 76.3537 94.351 75.3356C93.9316 74.3176 93.2188 73.4473 92.3033 72.8356C91.3878 72.2238 90.3111 71.8981 89.21 71.9C88.4853 71.8921 87.7663 72.0279 87.0945 72.2998C86.4227 72.5716 85.8114 72.974 85.2962 73.4837C84.781 73.9933 84.3719 74.6001 84.0928 75.2689C83.8137 75.9377 83.67 76.6553 83.67 77.38V77.38ZM85.78 77.38C85.8171 76.7086 86.0503 76.0627 86.4506 75.5224C86.8509 74.982 87.4007 74.5708 88.0322 74.3396C88.6637 74.1085 89.3491 74.0675 90.0037 74.2217C90.6582 74.3759 91.2532 74.7186 91.7151 75.2074C92.177 75.6962 92.4854 76.3096 92.6024 76.9719C92.7193 77.6341 92.6395 78.3161 92.373 78.9335C92.1065 79.5509 91.6648 80.0766 91.1026 80.4457C90.5405 80.8147 89.8825 81.0109 89.21 81.01C88.7388 81.0229 88.2702 80.9363 87.8348 80.7557C87.3994 80.5751 87.007 80.3047 86.6832 79.962C86.3595 79.6194 86.1117 79.2123 85.9561 78.7674C85.8004 78.3225 85.7404 77.8497 85.78 77.38V77.38ZM76.43 82.6H78.43V77.36C78.43 75.07 79.49 74.02 81.43 74.02C81.7686 74.0246 82.105 74.0751 82.43 74.17L82.52 72.04C82.236 71.9467 81.9389 71.8994 81.64 71.9C80.9967 71.8994 80.3654 72.0741 79.8139 72.4053C79.2624 72.7366 78.8117 73.2118 78.51 73.78V72.17H76.51L76.43 82.6ZM65.69 76.53C65.746 75.7112 66.1126 74.9448 66.7148 74.3872C67.317 73.8296 68.1093 73.523 68.93 73.53C69.3308 73.5035 69.7327 73.5629 70.1087 73.7043C70.4847 73.8457 70.8262 74.0658 71.1102 74.3498C71.3942 74.6339 71.6143 74.9753 71.7557 75.3513C71.8971 75.7273 71.9565 76.1292 71.93 76.53H65.69ZM74.05 78.11V77.41C74.05 74.72 72.64 71.9 68.97 71.9C68.2503 71.8845 67.535 72.0163 66.868 72.2874C66.2011 72.5585 65.5967 72.963 65.0919 73.4763C64.587 73.9895 64.1925 74.6006 63.9325 75.2719C63.6725 75.9432 63.5526 76.6606 63.58 77.38C63.5376 78.1014 63.6466 78.8236 63.9 79.5003C64.1534 80.177 64.5456 80.7932 65.0513 81.3093C65.5571 81.8254 66.1652 82.23 66.8366 82.4971C67.5081 82.7641 68.2279 82.8877 68.95 82.86C69.8351 82.9066 70.7183 82.7371 71.5232 82.366C72.3282 81.9949 73.0307 81.4334 73.57 80.73L72.07 79.58C71.7512 80.049 71.3258 80.4358 70.8287 80.7087C70.3315 80.9816 69.7768 81.1328 69.21 81.15C68.346 81.2164 67.4908 80.9381 66.8313 80.376C66.1717 79.8139 65.7614 79.0136 65.69 78.15L74.05 78.11ZM52 76.9L55 69.75L57.91 76.9H52ZM47.25 82.6H49.71L51.25 78.75H58.67L60.23 82.6H62.7L56 67H54.08L47.25 82.6Z" fill="white"/>
<path d="M163.48 115V115.62C163.509 115.997 163.458 116.375 163.328 116.73C163.199 117.085 162.996 117.408 162.732 117.678C162.468 117.948 162.149 118.158 161.797 118.295C161.445 118.431 161.067 118.491 160.69 118.47C159.41 118.47 158.59 117.99 158.59 116.88C158.59 115.31 160.73 115 162.49 115H163.48ZM158.36 112.28C159.108 111.564 160.105 111.166 161.14 111.17C161.432 111.138 161.727 111.167 162.007 111.256C162.286 111.344 162.545 111.49 162.765 111.684C162.985 111.877 163.162 112.115 163.286 112.381C163.409 112.648 163.475 112.937 163.48 113.23V113.64H162.11C159.11 113.64 156.73 114.51 156.73 117.02C156.73 118.92 158.3 119.95 160.11 119.95C160.785 120 161.461 119.865 162.065 119.561C162.669 119.256 163.179 118.792 163.54 118.22C163.54 118.72 163.54 119.22 163.6 119.71H165.25C165.19 119.119 165.163 118.524 165.17 117.93V112.93C165.17 111.24 163.97 109.67 161.08 109.67C159.657 109.658 158.279 110.171 157.21 111.11L158.36 112.28ZM149.7 119.71H151.7L155.53 109.93H153.53L150.73 117.42L147.8 109.93H145.65L149.7 119.71ZM134.16 114.82C134.148 115.851 134.443 116.862 135.007 117.725C135.571 118.588 136.379 119.264 137.328 119.667C138.277 120.069 139.325 120.181 140.337 119.987C141.35 119.793 142.282 119.303 143.015 118.578C143.749 117.853 144.25 116.927 144.455 115.917C144.661 114.906 144.562 113.858 144.17 112.904C143.778 111.95 143.112 111.135 142.255 110.561C141.399 109.987 140.391 109.68 139.36 109.68C138.681 109.672 138.007 109.799 137.377 110.053C136.747 110.307 136.174 110.684 135.69 111.161C135.207 111.638 134.823 112.206 134.56 112.832C134.297 113.458 134.161 114.131 134.16 114.81V114.82ZM136.16 114.82C136.195 114.192 136.414 113.588 136.788 113.083C137.163 112.577 137.677 112.193 138.268 111.976C138.858 111.76 139.499 111.721 140.112 111.865C140.724 112.009 141.281 112.329 141.713 112.786C142.146 113.242 142.435 113.816 142.545 114.435C142.656 115.054 142.582 115.692 142.334 116.27C142.086 116.848 141.674 117.341 141.149 117.687C140.624 118.034 140.009 118.219 139.38 118.22C138.936 118.236 138.493 118.157 138.081 117.989C137.67 117.821 137.298 117.567 136.992 117.245C136.686 116.922 136.451 116.539 136.305 116.119C136.158 115.699 136.102 115.253 136.14 114.81L136.16 114.82ZM126.78 118.22C126.098 118.26 125.42 118.094 124.833 117.744C124.247 117.394 123.779 116.876 123.49 116.257C123.201 115.638 123.105 114.947 123.214 114.272C123.323 113.598 123.632 112.972 124.101 112.475C124.57 111.978 125.177 111.634 125.844 111.486C126.511 111.339 127.207 111.395 127.842 111.648C128.476 111.9 129.021 112.338 129.404 112.904C129.787 113.469 129.991 114.137 129.99 114.82C130.026 115.261 129.968 115.704 129.82 116.12C129.672 116.537 129.439 116.918 129.134 117.238C128.829 117.558 128.46 117.81 128.051 117.977C127.642 118.145 127.202 118.224 126.76 118.21L126.78 118.22ZM131.85 104.11H130V111.33C129.608 110.802 129.094 110.376 128.502 110.089C127.91 109.801 127.258 109.661 126.6 109.68C125.278 109.738 124.028 110.305 123.113 111.261C122.198 112.218 121.687 113.491 121.687 114.815C121.687 116.139 122.198 117.412 123.113 118.368C124.028 119.325 125.278 119.892 126.6 119.95C127.257 119.965 127.908 119.822 128.499 119.536C129.091 119.249 129.605 118.825 130 118.3V119.71H131.86L131.85 104.11ZM117.25 119.71H119.1V104.1H117.25V119.71ZM104.37 114.82C104.358 115.851 104.653 116.862 105.217 117.725C105.781 118.588 106.589 119.264 107.538 119.667C108.487 120.069 109.535 120.181 110.547 119.987C111.56 119.793 112.492 119.303 113.225 118.578C113.959 117.853 114.46 116.927 114.665 115.917C114.871 114.906 114.772 113.858 114.38 112.904C113.988 111.95 113.322 111.135 112.465 110.561C111.609 109.987 110.601 109.68 109.57 109.68C108.889 109.669 108.213 109.794 107.581 110.047C106.949 110.3 106.373 110.676 105.887 111.153C105.402 111.631 105.016 112.2 104.752 112.827C104.488 113.455 104.351 114.129 104.35 114.81L104.37 114.82ZM106.37 114.82C106.405 114.192 106.624 113.588 106.998 113.083C107.373 112.577 107.887 112.193 108.478 111.976C109.068 111.76 109.709 111.721 110.322 111.865C110.934 112.009 111.491 112.329 111.923 112.786C112.356 113.242 112.645 113.816 112.755 114.435C112.866 115.054 112.792 115.692 112.544 116.27C112.296 116.848 111.884 117.341 111.359 117.687C110.834 118.034 110.219 118.219 109.59 118.22C109.144 118.239 108.699 118.162 108.285 117.995C107.871 117.828 107.497 117.575 107.189 117.253C106.88 116.93 106.644 116.545 106.496 116.124C106.348 115.703 106.291 115.255 106.33 114.81L106.37 114.82ZM86.5102 119.71H88.5102V107.71L93.4402 119.71H94.7602L99.6902 107.71V119.71H101.69V105.09H98.7402L94.1402 116.15H94.0602L89.4202 105.09H86.4702L86.5102 119.71Z" fill="white"/>
</svg>
